<?xml version="1.0" encoding="utf-8"?>
<!-- Generator: Adobe Illustrator 27.5.0, SVG Export Plug-In . SVG Version: 6.00 Build 0)  -->
<svg version="1.1" xmlns="http://www.w3.org/2000/svg" xmlns:xlink="http://www.w3.org/1999/xlink" x="0px" y="0px"
	 viewBox="0 0 500 500" style="enable-background:new 0 0 500 500;" xml:space="preserve">
<g id="Background_Complete">
	<g>
		<rect y="382.398" style="fill:#EBEBEB;" width="500" height="0.25"/>
		<rect x="400.674" y="393.042" style="fill:#EBEBEB;" width="33.122" height="0.25"/>
		<rect x="304.382" y="392.917" style="fill:#EBEBEB;" width="8.693" height="0.25"/>
		<rect x="430.709" y="398.494" style="fill:#EBEBEB;" width="19.192" height="0.25"/>
		<rect x="71.414" y="401.806" style="fill:#EBEBEB;" width="43.193" height="0.25"/>
		<rect x="104.556" y="390.888" style="fill:#EBEBEB;" width="6.333" height="0.25"/>
		<rect x="187.546" y="391.956" style="fill:#EBEBEB;" width="60.898" height="0.25"/>
		<path style="fill:#EBEBEB;" d="M237.014,337.8H43.915c-3.147,0-5.708-2.561-5.708-5.708V60.66c0-3.147,2.561-5.708,5.708-5.708
			h193.099c3.146,0,5.707,2.561,5.707,5.708v271.432C242.721,335.239,240.16,337.8,237.014,337.8z M43.915,55.203
			c-3.01,0-5.458,2.448-5.458,5.458v271.432c0,3.01,2.448,5.458,5.458,5.458h193.099c3.009,0,5.457-2.448,5.457-5.458V60.66
			c0-3.009-2.448-5.458-5.457-5.458H43.915z"/>
		<path style="fill:#EBEBEB;" d="M453.31,337.8H260.212c-3.147,0-5.707-2.561-5.707-5.708V60.66c0-3.147,2.561-5.708,5.707-5.708
			H453.31c3.148,0,5.708,2.561,5.708,5.708v271.432C459.019,335.239,456.458,337.8,453.31,337.8z M260.212,55.203
			c-3.009,0-5.457,2.448-5.457,5.458v271.432c0,3.01,2.448,5.458,5.457,5.458H453.31c3.01,0,5.458-2.448,5.458-5.458V60.66
			c0-3.009-2.448-5.458-5.458-5.458H260.212z"/>
	</g>
	<g>
		<g>
			<g>
				<rect x="71.111" y="96.333" style="fill:#F0F0F0;" width="357.778" height="148.889"/>
				
					<rect x="182.556" y="-1.111" transform="matrix(-1.836970e-16 1 -1 -1.836970e-16 420.7777 -79.2223)" style="fill:#FAFAFA;" width="134.889" height="343.777"/>
				<polygon style="fill:#FFFFFF;" points="123.368,238.222 158.633,103.333 184.633,103.333 149.367,238.222 				"/>
				<polygon style="fill:#FFFFFF;" points="155.367,238.222 190.633,103.333 202.265,103.333 167,238.222 				"/>
				<polygon style="fill:#FFFFFF;" points="212.274,238.222 247.539,103.333 273.539,103.333 238.274,238.222 				"/>
				<polygon style="fill:#FFFFFF;" points="277.829,238.222 313.094,103.333 324.727,103.333 289.462,238.222 				"/>
				
					<rect x="101.875" y="169.889" transform="matrix(-1.836970e-16 1 -1 -1.836970e-16 340.0974 1.4582)" style="fill:#E0E0E0;" width="134.889" height="1.778"/>
				
					<rect x="11.556" y="169.889" transform="matrix(-1.836970e-16 1 -1 -1.836970e-16 249.7778 91.7776)" style="fill:#E0E0E0;" width="134.889" height="1.778"/>
				
					<rect x="97.486" y="167.278" transform="matrix(-1.836970e-16 1 -1 -1.836970e-16 335.7084 5.8471)" style="fill:#F0F0F0;" width="134.889" height="7"/>
				<g>
					
						<rect x="188.667" y="169.889" transform="matrix(-1.836970e-16 1 -1 -1.836970e-16 426.8892 -85.3337)" style="fill:#E0E0E0;" width="134.889" height="1.778"/>
					
						<rect x="184.278" y="167.278" transform="matrix(-1.836970e-16 1 -1 -1.836970e-16 422.5003 -80.9448)" style="fill:#F0F0F0;" width="134.889" height="7"/>
				</g>
				<g>
					
						<rect x="275.5" y="169.889" transform="matrix(-1.836970e-16 1 -1 -1.836970e-16 513.7224 -172.1669)" style="fill:#E0E0E0;" width="134.889" height="1.778"/>
					
						<rect x="271.111" y="167.278" transform="matrix(-1.836970e-16 1 -1 -1.836970e-16 509.3336 -167.778)" style="fill:#F0F0F0;" width="134.889" height="7"/>
				</g>
				
					<rect x="355.333" y="169.889" transform="matrix(-1.836970e-16 1 -1 -1.836970e-16 600.5554 -258.9999)" style="fill:#E0E0E0;" width="148.889" height="1.778"/>
			</g>
			<g>
				<path style="fill:#E0E0E0;" d="M434.667,86.111H65.333c-0.855,0-1.555-0.7-1.555-1.555l0,0c0-0.856,0.7-1.556,1.555-1.556
					h369.333c0.855,0,1.556,0.7,1.556,1.556l0,0C436.222,85.411,435.522,86.111,434.667,86.111z"/>
				<g style="opacity:0.6;">
					<rect x="66.778" y="80" style="fill:#F5F5F5;" width="75.556" height="271.667"/>
					<polygon style="fill:#E6E6E6;" points="107.722,353.889 101.389,353.889 103.167,82.222 106,82.222 					"/>
					<polygon style="fill:#E6E6E6;" points="86.75,353.889 83.695,353.889 84.552,82.222 85.919,82.222 					"/>
					<polygon style="fill:#E6E6E6;" points="128.75,353.889 125.695,353.889 126.552,82.222 127.919,82.222 					"/>
				</g>
				<g style="opacity:0.6;">
					<rect x="356.762" y="80" style="fill:#F5F5F5;" width="75.556" height="271.667"/>
					<polygon style="fill:#E6E6E6;" points="386.373,353.889 380.04,353.889 381.817,82.222 384.651,82.222 					"/>
					<polygon style="fill:#E6E6E6;" points="372.401,353.889 369.345,353.889 370.203,82.222 371.57,82.222 					"/>
					<polygon style="fill:#E6E6E6;" points="404.734,353.889 401.678,353.889 402.536,82.222 403.903,82.222 					"/>
					<polygon style="fill:#E6E6E6;" points="420.29,353.889 417.235,353.889 418.093,82.222 419.46,82.222 					"/>
				</g>
			</g>
		</g>
		<g>
			<g>
				<g>
					
						<rect x="325.216" y="299.32" transform="matrix(-1 -1.224647e-16 1.224647e-16 -1 664.6337 680.0159)" style="fill:#E6E6E6;" width="14.203" height="81.377"/>
					
						<rect x="160.582" y="299.32" transform="matrix(-1 -1.224647e-16 1.224647e-16 -1 491.2565 680.0159)" style="fill:#F0F0F0;" width="170.093" height="81.377"/>
					<polygon style="fill:#E0E0E0;" points="326.855,380.697 321.735,380.697 167.931,380.697 167.931,382.398 321.735,382.398 
						326.855,382.398 332.074,382.398 332.074,380.697 					"/>
					
						<rect x="165.434" y="304.409" transform="matrix(-1 -1.224647e-16 1.224647e-16 -1 491.2566 641.6554)" style="opacity:0.5;fill:#FAFAFA;" width="160.388" height="32.836"/>
					
						<rect x="165.434" y="342.553" transform="matrix(-1 -1.224647e-16 1.224647e-16 -1 491.2566 717.942)" style="opacity:0.5;fill:#FAFAFA;" width="160.388" height="32.836"/>
					<path style="fill:#E0E0E0;" d="M189.747,320.828c0,1.993-1.616,3.609-3.61,3.609s-3.609-1.616-3.609-3.609
						c0-1.993,1.616-3.61,3.609-3.61S189.747,318.834,189.747,320.828z"/>
					<path style="fill:#E0E0E0;" d="M308.728,320.828c0,1.993-1.616,3.609-3.609,3.609c-1.993,0-3.61-1.616-3.61-3.609
						c0-1.993,1.616-3.61,3.61-3.61C307.112,317.218,308.728,318.834,308.728,320.828z"/>
					<circle style="fill:#E0E0E0;" cx="186.138" cy="358.971" r="3.609"/>
					<path style="fill:#E0E0E0;" d="M308.728,358.971c0,1.993-1.616,3.609-3.609,3.609c-1.993,0-3.61-1.616-3.61-3.609
						s1.616-3.609,3.61-3.609C307.112,355.362,308.728,356.978,308.728,358.971z"/>
					<path style="fill:#E0E0E0;" d="M249.238,320.828c0,1.993-1.616,3.609-3.609,3.609s-3.609-1.616-3.609-3.609
						c0-1.993,1.616-3.61,3.609-3.61S249.238,318.834,249.238,320.828z"/>
					<circle style="fill:#E0E0E0;" cx="245.628" cy="358.971" r="3.609"/>
				</g>
			</g>
			<path style="fill:#F0F0F0;" d="M320.161,285.497c0,7.634-6.189,13.823-13.823,13.823c-7.634,0-13.823-6.189-13.823-13.823
				H320.161z"/>
			<path style="fill:#F0F0F0;" d="M210.889,283.03c0,8.997-7.293,16.29-16.29,16.29c-8.997,0-16.29-7.293-16.29-16.29H210.889z"/>
			<path style="fill:#F0F0F0;" d="M280.917,289.73c0,5.296-4.293,9.59-9.589,9.59c-5.296,0-9.589-4.293-9.589-9.59H280.917z"/>
		</g>
	</g>
</g>
<g id="Background_Simple" style="display:none;">
	<g style="display:inline;">
		<path style="fill:#407BFF;" d="M232.343,111.648c-38.575-2.253-78.938-24.994-116.759-3.057
			c-28.398,16.472-32.554,48.788-24.237,79.062c21.843,79.508,144.13,92.961,213.035,73.012
			c71.365-20.662,151.897-91.38,105.742-163.325c-19.023-29.653-52.175-34.882-88.345-25.054
			C291.049,80.635,262.575,113.414,232.343,111.648z"/>
		<path style="opacity:0.9;fill:#FFFFFF;" d="M232.343,111.648c-38.575-2.253-78.938-24.994-116.759-3.057
			c-28.398,16.472-32.554,48.788-24.237,79.062c21.843,79.508,144.13,92.961,213.035,73.012
			c71.365-20.662,151.897-91.38,105.742-163.325c-19.023-29.653-52.175-34.882-88.345-25.054
			C291.049,80.635,262.575,113.414,232.343,111.648z"/>
	</g>
</g>
<g id="Shadow_1_">
	<ellipse id="_x3C_Path_x3E__126_" style="fill:#F5F5F5;" cx="250" cy="416.238" rx="193.889" ry="11.323"/>
</g>
<g id="Character_2">
	<g>
		<g>
			<path style="fill:#263238;" d="M348.149,115.365c-2.134-2.131-6.233-10.204-2.3-13.951c3.933-3.747,7.431-0.349,7.703,1.492
				C353.823,104.746,353.095,120.303,348.149,115.365z"/>
			<polygon style="fill:#FF8B7B;" points="347.246,405.652 338.325,405.73 335.892,385.091 344.812,385.013 			"/>
			<path style="fill:#263238;" d="M338.307,404.697l9.742-0.086c0.365-0.003,0.699,0.247,0.805,0.602l2.355,7.909
				c0.244,0.82-0.322,1.604-1.165,1.597c-3.519-0.029-8.612-0.19-13.029-0.152c-5.165,0.045-7.468,0.366-13.525,0.419
				c-3.662,0.032-4.956-3.659-3.448-4.008c6.864-1.587,10.415-1.8,16.167-5.57C336.835,405.001,337.537,404.704,338.307,404.697z"/>
			<g>
				<polygon style="opacity:0.2;" points="335.894,385.097 337.147,395.735 346.071,395.657 344.818,385.019 				"/>
			</g>
			<path style="fill:#407BFF;" d="M334.624,406.289c1.004,0,2.093-0.183,2.857-0.345c0.088-0.019,0.155-0.091,0.166-0.181
				c0.011-0.09-0.036-0.176-0.117-0.216c-0.424-0.207-4.171-2.006-5.196-1.367c-0.197,0.122-0.301,0.319-0.301,0.569
				c0,0.421,0.159,0.764,0.473,1.019C332.984,406.157,333.773,406.289,334.624,406.289z M336.76,405.654
				c-1.931,0.34-3.399,0.266-3.988-0.212c-0.214-0.173-0.317-0.399-0.317-0.691c0-0.13,0.051-0.179,0.102-0.211
				C333.107,404.197,335.225,404.959,336.76,405.654z"/>
			<path style="fill:#407BFF;" d="M337.437,405.949c0.047,0,0.093-0.015,0.131-0.045c0.061-0.048,0.09-0.125,0.077-0.201
				c-0.027-0.163-0.702-3.998-2.826-3.761c-0.561,0.062-0.718,0.345-0.751,0.571c-0.147,1.002,2.143,2.933,3.286,3.419
				C337.38,405.943,337.409,405.949,337.437,405.949z M334.999,402.354c1.278,0,1.92,2.084,2.139,2.998
				c-1.176-0.666-2.74-2.18-2.653-2.778c0.006-0.043,0.026-0.173,0.38-0.213C334.911,402.357,334.955,402.354,334.999,402.354z"/>
			<path style="fill:#FF8B7B;" d="M340.944,160.427l-0.924,0.96l-0.859,0.854c-0.572,0.56-1.161,1.085-1.747,1.613
				c-1.177,1.047-2.376,2.059-3.603,3.039c-2.462,1.948-5.055,3.753-7.796,5.377c-1.37,0.813-2.78,1.579-4.218,2.308
				c-1.448,0.715-2.941,1.367-4.461,1.976c-3.056,1.2-6.284,2.137-9.675,2.643l-0.745,0.112c-0.465,0.056-0.911,0.103-1.444,0.089
				c-1.003,0.002-2.182-0.204-3.256-0.64c-1.095-0.427-2.039-1.09-2.765-1.771c-0.756-0.699-1.232-1.385-1.658-2.059
				c-0.777-1.315-1.153-2.462-1.432-3.504c-0.271-1.043-0.421-1.993-0.526-2.904c-0.211-1.817-0.214-3.474-0.151-5.094
				c0.067-1.612,0.196-3.172,0.376-4.707c0.382-3.064,0.917-6.031,1.579-8.955c0.672-2.933,1.417-5.772,2.379-8.671l6.572,1.292
				c-0.241,5.626-0.51,11.384-0.329,16.82c0.067,2.692,0.316,5.406,0.797,7.53c0.123,0.518,0.268,0.988,0.414,1.332
				c0.14,0.341,0.305,0.552,0.298,0.464c-0.016-0.08-0.068-0.17-0.273-0.396c-0.189-0.201-0.527-0.441-0.938-0.626
				c-0.4-0.178-0.853-0.247-1.133-0.266c-0.17,0.003-0.258-0.009-0.363,0.005c-0.109,0.021,0.059-0.018,0.106-0.032l0.216-0.056
				c2.304-0.562,4.604-1.447,6.88-2.497c2.265-1.09,4.501-2.362,6.683-3.784c2.174-1.436,4.31-2.988,6.373-4.651
				c1.037-0.823,2.054-1.676,3.042-2.551l1.454-1.321l0.706-0.651l0.607-0.58L340.944,160.427z"/>
			<path style="fill:#263238;" d="M346.229,156.899c-0.34-9.425-8.083-12.706-17.778-6.282c-9.198,6.106-12.335,8.857-12.335,8.857
				l6.275,20.137c0,0,12.021-3.809,18.941-11.292C346.028,163.242,346.345,160.111,346.229,156.899z"/>
			<path style="opacity:0.2;" d="M334.42,160.92c0,0-5.79,8.28-7.84,17.08c2.3-0.99,5.27-2.43,8.2-4.32L334.42,160.92z"/>
			<path style="fill:#FF8B7B;" d="M306.26,145.372l3.357-7.588l-9.503-2.784c0,0-1.634,3.63-0.705,9.86L306.26,145.372z"/>
			<polygon style="fill:#FF8B7B;" points="310.628,128.882 302.364,129.866 300.115,134.999 309.618,137.783 			"/>
			<g>
				<g>
					<path style="fill:#407BFF;" d="M334.484,225.256c0,0-6.148,51.463-6.821,78.972c-0.7,28.613,4.909,86.324,4.909,86.324
						l16.108-0.342c0,0,1.937-61.778,4.275-90.088c2.548-30.863,8.949-75.449,8.949-75.449L334.484,225.256z"/>
					<path style="opacity:0.6;fill:#FFFFFF;" d="M334.484,225.256c0,0-6.148,51.463-6.821,78.972
						c-0.7,28.613,4.909,86.324,4.909,86.324l16.108-0.342c0,0,1.937-61.778,4.275-90.088c2.548-30.863,8.949-75.449,8.949-75.449
						L334.484,225.256z"/>
				</g>
				<path style="opacity:0.2;" d="M353.67,239.83c-7.2,15.87-5.27,51.32-1.18,66.52c0.15-2.21,0.31-4.3,0.47-6.23
					c1.67-20.34,5.02-46.63,7.11-62.2C358.11,235.08,355.92,234.86,353.67,239.83z"/>
				<g>
					<polygon style="fill:#407BFF;" points="350.66,390.933 331.718,391.312 330.325,385.019 350.429,384.974 					"/>
				</g>
			</g>
			<polygon style="fill:#FF8B7B;" points="387.043,405.652 378.122,405.73 375.689,385.091 384.609,385.013 			"/>
			<path style="fill:#263238;" d="M378.104,404.697l9.742-0.086c0.365-0.003,0.699,0.247,0.805,0.602l2.355,7.909
				c0.244,0.82-0.322,1.604-1.165,1.597c-3.519-0.029-8.612-0.19-13.029-0.152c-5.164,0.045-7.468,0.366-13.525,0.419
				c-3.662,0.032-4.955-3.659-3.448-4.008c6.864-1.587,10.415-1.8,16.167-5.57C376.632,405.001,377.334,404.704,378.104,404.697z"/>
			<g>
				<polygon style="opacity:0.2;" points="375.691,385.097 376.944,395.735 385.868,395.657 384.616,385.019 				"/>
			</g>
			<path style="fill:#407BFF;" d="M374.421,406.289c1.004,0,2.093-0.183,2.857-0.345c0.088-0.019,0.155-0.091,0.166-0.181
				c0.011-0.09-0.036-0.176-0.117-0.216c-0.424-0.207-4.171-2.006-5.196-1.367c-0.197,0.122-0.301,0.319-0.301,0.569
				c0,0.421,0.159,0.764,0.473,1.019C372.781,406.157,373.57,406.289,374.421,406.289z M376.557,405.654
				c-1.931,0.34-3.399,0.266-3.988-0.212c-0.214-0.173-0.317-0.399-0.316-0.691c0-0.13,0.051-0.179,0.102-0.211
				C372.904,404.197,375.022,404.959,376.557,405.654z"/>
			<path style="fill:#407BFF;" d="M377.234,405.949c0.047,0,0.093-0.015,0.131-0.045c0.061-0.048,0.09-0.125,0.077-0.201
				c-0.027-0.163-0.702-3.998-2.826-3.761c-0.561,0.062-0.718,0.345-0.751,0.571c-0.147,1.002,2.143,2.933,3.287,3.419
				C377.177,405.943,377.206,405.949,377.234,405.949z M374.796,402.354c1.278,0,1.92,2.084,2.139,2.998
				c-1.176-0.666-2.74-2.18-2.652-2.778c0.006-0.043,0.025-0.173,0.38-0.213C374.708,402.357,374.752,402.354,374.796,402.354z"/>
			<g>
				<g>
					<path style="fill:#407BFF;" d="M350.203,224.921c0,0,4.451,55.365,7.694,82.69c3.374,28.422,14.473,82.94,14.473,82.94
						l16.109-0.342c0,0-4.421-61.902-6.13-90.257c-1.864-30.912-2.344-75.712-2.344-75.712L350.203,224.921z"/>
					<path style="opacity:0.6;fill:#FFFFFF;" d="M350.203,224.921c0,0,4.451,55.365,7.694,82.69
						c3.374,28.422,14.473,82.94,14.473,82.94l16.109-0.342c0,0-4.421-61.902-6.13-90.257c-1.864-30.912-2.344-75.712-2.344-75.712
						L350.203,224.921z"/>
				</g>
				<g>
					<polygon style="fill:#407BFF;" points="390.457,390.933 371.515,391.312 370.122,385.019 390.226,384.974 					"/>
				</g>
			</g>
			<g>
				<path style="fill:#263238;" d="M333.37,148.155c0,0-6.594,24.458,1.114,77.101c14.374-0.306,38.525-0.867,45.519-1.016
					c0.173-7.33-5.234-43.269,1.094-77.924c0,0-5.982-1.152-13.782-1.362c-6.102-0.164-14.931-0.17-20.279,0.433
					C339.985,146.182,333.37,148.155,333.37,148.155z"/>
			</g>
			<path style="opacity:0.2;" d="M378.34,170.98l-7.45-6.17c0.49,4.82,4.85,16.63,7.15,22.61
				C377.98,182.2,378.05,176.67,378.34,170.98z"/>
			<path style="fill:#FFFFFF;" d="M351.689,162.335l-8.126,16.082c-0.785,1.553,0.904,3.234,2.415,2.403l5.311-2.92
				c0.583-0.321,1.302-0.273,1.851,0.123l5.226,3.767c1.404,1.012,3.227-0.385,2.643-2.025l-6.113-17.176
				C354.373,161.118,352.384,160.96,351.689,162.335z"/>
			<path style="fill:#FF8B7B;" d="M364.819,122.163c-1.14,6.552-2.162,18.534,2.496,22.791c0,0-1.359,5.931-13.767,7.951
				c-8.337-2.675-6.512-7.518-6.512-7.518c7.239-1.893,6.936-7.287,5.561-12.33L364.819,122.163z"/>
			<path style="opacity:0.2;" d="M359.837,126.608l-7.234,6.443c0.33,1.193,0.592,2.405,0.702,3.586
				c2.771-0.461,6.525-3.593,6.758-6.51C360.178,128.673,360.088,127.279,359.837,126.608z"/>
			<path style="fill:#FF8B7B;" d="M368.788,114.09c-2.404,8.521-3.377,13.631-8.701,17.117c-8.007,5.245-17.81-1.022-18.001-10.09
				c-0.172-8.162,3.788-20.726,12.987-22.329C364.136,97.209,371.191,105.569,368.788,114.09z"/>
			<path style="fill:#263238;" d="M363.663,119.307c-1.121-2.718-1.928-11.675,2.733-13.873c4.662-2.197,9.521,3.169,8.298,5.705
				C372.796,115.078,366.261,125.605,363.663,119.307z"/>
			<path style="fill:#263238;" d="M366.448,108.59c-1.146-2.961-14.862-4.696-16.78-7.929c-2.281-3.845,7.076-4.304,13.505-2.348
				c5.65,1.72,9.417,3.373,8.757,7.575C371.555,108.267,366.448,108.59,366.448,108.59z"/>
			<path style="fill:#263238;" d="M369.425,105.497c0,0,2.972,0.826,4.648-1.381C373.552,106.295,371.016,108.501,369.425,105.497z"
				/>
			<path style="fill:#263238;" d="M355.703,96.251c-4.124-3.203-9.732,0.561-9.2,4.73c0.532,4.169,14.417,7.342,14.417,7.342
				S361.172,100.498,355.703,96.251z"/>
			<path style="fill:#263238;" d="M346.512,101.041c0.631,2.915,2.759,5.213,7.066,6.905c-4.03-2.833-5.423-7.306-5.423-7.306
				L346.512,101.041z"/>
			<path style="fill:#263238;" d="M355.165,113.663c-0.152,0.703-0.649,1.192-1.108,1.093c-0.46-0.1-0.709-0.751-0.556-1.454
				c0.152-0.703,0.649-1.192,1.108-1.093C355.068,112.309,355.317,112.96,355.165,113.663z"/>
			<path style="fill:#263238;" d="M347.216,111.939c-0.152,0.703-0.649,1.193-1.108,1.093c-0.46-0.1-0.709-0.751-0.556-1.454
				c0.153-0.703,0.649-1.192,1.108-1.093C347.12,110.585,347.369,111.235,347.216,111.939z"/>
			<path style="fill:#FF5652;" d="M349.668,112.837c0,0-2.479,3.71-4.664,5.286c0.992,1.431,3.222,1.359,3.222,1.359
				L349.668,112.837z"/>
			<path style="fill:#263238;" d="M349.85,121.866c0.001,0,0.003,0.001,0.004,0.001c3.309,0.718,5.317-1.222,5.401-1.305
				c0.083-0.082,0.084-0.215,0.002-0.298c-0.082-0.083-0.215-0.084-0.298-0.002c-0.019,0.019-1.937,1.86-5.014,1.193
				c-0.114-0.025-0.227,0.048-0.251,0.162C349.668,121.729,349.738,121.84,349.85,121.866z"/>
			<path style="fill:#263238;" d="M358.107,111.617c0.089,0.021,0.186,0.014,0.276-0.028c0.212-0.098,0.304-0.349,0.206-0.561
				c-0.983-2.121-2.911-2.422-2.992-2.434c-0.231-0.033-0.445,0.127-0.479,0.358c-0.033,0.23,0.129,0.444,0.356,0.478l0,0
				c0.064,0.01,1.564,0.261,2.349,1.953C357.879,111.506,357.986,111.588,358.107,111.617z"/>
			<path style="fill:#263238;" d="M344.32,108.452c0.156,0.037,0.326-0.016,0.431-0.15c1.164-1.482,2.716-1.363,2.732-1.362
				c0.233,0.021,0.438-0.151,0.458-0.384c0.02-0.233-0.156-0.438-0.384-0.458c-0.082-0.007-2.027-0.157-3.472,1.681
				c-0.144,0.184-0.112,0.449,0.072,0.593C344.207,108.412,344.263,108.438,344.32,108.452z"/>
			<path style="fill:#FF8B7B;" d="M383.28,153.163c1.819,3.174,3.344,6.252,4.915,9.424c1.547,3.158,2.995,6.366,4.357,9.627
				c1.358,3.262,2.661,6.561,3.8,9.957c1.176,3.372,2.21,6.843,3.051,10.426l0.608,2.733c0.264,1.288,0.373,2.61,0.34,3.897
				c-0.059,2.587-0.72,4.981-1.595,7.064c-1.785,4.188-4.416,7.286-7.112,9.996c-2.741,2.679-5.663,4.935-8.695,6.936
				c-1.507,1.013-3.073,1.916-4.641,2.797c-1.588,0.887-3.125,1.685-4.875,2.462l-3.325-5.814c1.206-0.955,2.541-2.029,3.78-3.078
				c1.256-1.06,2.454-2.182,3.646-3.28c2.355-2.229,4.576-4.54,6.43-6.948c1.865-2.373,3.355-4.911,4.025-7.143
				c0.337-1.116,0.426-2.123,0.361-2.968c-0.034-0.425-0.111-0.818-0.235-1.198l-0.673-2.244
				c-1.904-6.063-4.444-12.183-7.205-18.211c-1.367-3.023-2.825-6.023-4.286-9.022c-1.445-2.979-3.025-6.012-4.495-8.85
				L383.28,153.163z"/>
			<path style="fill:#263238;" d="M381.444,146.385c8.335,1.81,14.139,23.561,14.139,23.561l-14.917,13.533
				c0,0-7.287-7.658-11.027-18.027C365.72,154.587,372.516,144.446,381.444,146.385z"/>
			<path style="fill:#FF8B7B;" d="M371.871,221.682l-9.588,0.101l5.945,9.665c0,0,6.828-1.688,7.44-5.118L371.871,221.682z"/>
			<polygon style="fill:#FF8B7B;" points="356.307,227.487 361.602,235.25 368.228,231.448 362.283,221.783 			"/>
			<path style="fill:#FF8B7B;" d="M371.408,121.89c-1.114,2.111-3.099,3.511-4.982,4.061c-2.833,0.826-4.283-1.699-3.523-4.391
				c0.684-2.422,2.981-5.771,5.838-5.416C371.554,116.493,372.681,119.475,371.408,121.89z"/>
		</g>
	</g>
</g>
<g id="Hello">
	<g>
		<g>
			
				<rect x="275.754" y="287.761" transform="matrix(0.9974 -0.0723 0.0723 0.9974 -20.1014 21.073)" style="fill:#407BFF;" width="10.687" height="1"/>
			
				<rect x="290.772" y="286.872" transform="matrix(0.9974 -0.0723 0.0723 0.9974 -20.0069 21.9619)" style="fill:#407BFF;" width="5.249" height="1"/>
			<path style="fill:#407BFF;" d="M341.954,169.272L165.442,182.04c-7.639,0.553-13.437,7.255-12.885,14.894l6.02,83.22
				c0.553,7.639,7.255,13.437,14.894,12.884l9.984-0.722c1.514-0.109,2.829,1.029,2.939,2.542l1.116,15.425
				c0.097,1.339,1.764,1.892,2.642,0.877l16.738-19.349c0.703-0.813,1.701-1.313,2.773-1.391l140.321-10.15
				c7.639-0.553,13.437-7.255,12.885-14.894l-6.02-83.22C356.296,174.518,349.594,168.72,341.954,169.272z"/>
			<g>
				<path style="fill:#FFFFFF;" d="M191.235,220.201l9.535-0.69l0.781,10.798l10.419-0.754l-0.781-10.798l9.577-0.693l2.232,30.857
					l-9.577,0.693l-0.903-12.482l-10.419,0.754l0.903,12.482l-9.535,0.69L191.235,220.201z"/>
				<path style="opacity:0.2;" d="M165.442,182.04c-7.639,0.552-13.437,7.255-12.885,14.894l6.02,83.22
					c0.553,7.639,7.255,13.437,14.894,12.885l1.469-0.106c5.022-0.363,9.174-4.054,10.123-8.999l20.105-104.766L165.442,182.04z"/>
				<path style="fill:#FFFFFF;" d="M252.925,237.659l-17.175,1.242c0.254,1.364,0.7,2.361,1.338,2.992
					c0.898,0.908,2.013,1.314,3.346,1.218c0.842-0.061,1.626-0.329,2.354-0.805c0.444-0.3,0.908-0.806,1.392-1.518l8.497,0.168
					c-1.129,2.339-2.57,4.061-4.323,5.169c-1.754,1.107-4.335,1.784-7.745,2.031c-2.961,0.214-5.32-0.035-7.078-0.747
					s-3.261-1.936-4.508-3.673c-1.247-1.736-1.959-3.833-2.137-6.288c-0.253-3.494,0.662-6.402,2.744-8.725
					c2.082-2.323,5.094-3.627,9.037-3.912c3.199-0.231,5.76,0.07,7.682,0.904c1.922,0.834,3.434,2.135,4.535,3.904
					c1.101,1.768,1.758,4.126,1.971,7.072L252.925,237.659z M243.914,234.184c-0.288-1.644-0.82-2.797-1.594-3.46
					c-0.774-0.663-1.751-0.952-2.93-0.867c-1.361,0.098-2.41,0.717-3.145,1.857c-0.47,0.711-0.728,1.738-0.771,3.081
					L243.914,234.184z"/>
				<path style="fill:#FFFFFF;" d="M255.579,215.547l8.588-0.621l2.232,30.857l-8.588,0.621L255.579,215.547z"/>
				<path style="fill:#FFFFFF;" d="M269.933,214.508l8.588-0.621l2.232,30.857l-8.588,0.621L269.933,214.508z"/>
				<path style="fill:#FFFFFF;" d="M284.369,233.311c-0.247-3.41,0.701-6.303,2.842-8.68c2.141-2.376,5.169-3.706,9.084-3.99
					c4.476-0.324,7.952,0.73,10.427,3.16c1.989,1.958,3.095,4.466,3.316,7.525c0.249,3.438-0.688,6.337-2.809,8.698
					c-2.121,2.361-5.196,3.687-9.223,3.978c-3.592,0.26-6.563-0.442-8.912-2.106C286.209,239.835,284.634,236.973,284.369,233.311z
					 M292.955,232.669c0.144,1.992,0.654,3.437,1.53,4.333c0.876,0.896,1.924,1.3,3.145,1.211c1.235-0.089,2.215-0.633,2.939-1.63
					c0.725-0.998,1.012-2.535,0.862-4.611c-0.14-1.936-0.644-3.349-1.513-4.239c-0.868-0.889-1.892-1.291-3.071-1.206
					c-1.249,0.09-2.245,0.646-2.99,1.666C293.114,229.212,292.813,230.704,292.955,232.669z"/>
				<path style="fill:#FFFFFF;" d="M312.766,211.41l9.156-0.662l0.509,7.03l-0.747,14.251l-5.662,0.41l-2.747-13.998L312.766,211.41
					z M314.767,234.688l8.546-0.618l0.547,7.556l-8.546,0.618L314.767,234.688z"/>
			</g>
		</g>
	</g>
</g>
<g id="Character_1">
	<g>
		<path style="fill:#263238;" d="M162.996,154.598c-0.046,1.813,0.083,3.32,0.231,4.384c-11.736,4.05-22.63,3.153-28.15,2.228
			c0.268-0.98,0.684-2.82,0.823-5.234c-0.176,1.71-1.147,3.782-1.831,5.068c-1.776-0.342-2.774-0.629-2.774-0.629
			s1.813-9.849-1.461-16.997c-3.274-7.158-1.646-11.153,0.832-12.291c4.605-14.14,21.89-11.902,27.744-6.168
			c7.417,7.278,7.463,27.79,8.776,32.479c-1.082,0.471-2.155,0.906-3.227,1.285C163.486,157.464,163.024,155.911,162.996,154.598z"
			/>
		<path style="fill:#FFC3BD;" d="M170.148,176.613l0.904,2.846c0.324,0.98,0.66,1.964,1.01,2.946
			c0.672,1.975,1.369,3.953,2.115,5.919c0.756,1.962,1.471,3.945,2.255,5.906l1.155,2.952l0.291,0.738l0.067,0.168l0.009,0.027
			c0.004,0.029,0.005,0.029-0.002,0.026c0,0-0.2-0.18-0.42-0.255c-0.221-0.077-0.314-0.011-0.176-0.006
			c0.122,0.012,0.393-0.021,0.709-0.112c0.643-0.176,1.448-0.56,2.243-1.003c1.626-0.893,3.256-2.109,4.881-3.346
			c1.621-1.256,3.211-2.611,4.767-4.016c1.585-1.368,3.131-2.841,4.645-4.258l3.069,2.594c-1.278,1.837-2.636,3.52-4.032,5.232
			c-1.428,1.673-2.913,3.311-4.495,4.903c-1.587,1.598-3.288,3.103-5.281,4.514c-1.021,0.689-2.1,1.357-3.479,1.901
			c-0.693,0.267-1.467,0.508-2.413,0.618c-0.926,0.109-2.12,0.065-3.324-0.448c-1.214-0.491-2.215-1.448-2.798-2.344
			c-0.154-0.227-0.294-0.455-0.402-0.67l-0.269-0.531l-0.358-0.733c-0.477-0.977-0.96-1.953-1.414-2.943
			c-0.913-1.976-1.822-3.96-2.648-5.983c-0.838-2.018-1.642-4.056-2.407-6.12c-0.367-1.037-0.723-2.083-1.068-3.139
			c-0.355-1.076-0.662-2.077-0.978-3.302L170.148,176.613z"/>
		<path style="fill:#407BFF;" d="M167.782,167.731c3.446,0.878,5.857,15.061,5.857,15.061l-9.497,6.459
			c0,0-9.106-14.308-6.455-18.097C160.448,167.207,162.753,166.45,167.782,167.731z"/>
		<g>
			<path style="fill:#407BFF;" d="M167.782,167.731c3.446,0.878,5.857,15.061,5.857,15.061l-9.497,6.459
				c0,0-9.106-14.308-6.455-18.097C160.448,167.207,162.753,166.45,167.782,167.731z"/>
			<path style="opacity:0.4;fill:#FFFFFF;" d="M167.782,167.731c3.446,0.878,5.857,15.061,5.857,15.061l-9.497,6.459
				c0,0-9.106-14.308-6.455-18.097C160.448,167.207,162.753,166.45,167.782,167.731z"/>
		</g>
		<polygon style="opacity:0.3;" points="167.471,170.898 170.118,185.194 164.78,188.814 		"/>
		<path style="fill:#FFC3BD;" d="M194.427,185.518l3.169-7.633l3.911,7.633c0,0-2.539,3.8-5.889,2.873L194.427,185.518z"/>
		<polygon style="fill:#FFC3BD;" points="201.089,177.088 206.111,179.113 201.506,185.518 197.595,177.884 		"/>
		<polygon style="fill:#FFC3BD;" points="149.135,406.45 157.497,406.45 158.056,387.084 149.693,387.084 		"/>
		<polygon style="fill:#FFC3BD;" points="93.01,381.505 100.704,384.781 110.765,368.017 103.071,364.741 		"/>
		<path style="fill:#263238;" d="M102.179,383.642l-8.004-4.919c-0.291-0.179-0.652-0.122-0.868,0.137l-4.804,5.772
			c-0.498,0.599-0.315,1.568,0.364,1.969c2.82,1.667,4.265,2.33,7.785,4.493c2.165,1.331,5.191,3.5,8.181,5.338
			c2.925,1.798,4.967-1.021,3.886-2.054c-4.845-4.632-4.709-6.83-5.619-9.566C102.937,384.319,102.605,383.904,102.179,383.642z"/>
		<path style="fill:#263238;" d="M157.784,405.481h-9.395c-0.342,0-0.619,0.237-0.667,0.571l-1.07,7.433
			c-0.111,0.771,0.552,1.501,1.341,1.487c3.275-0.056,4.854-0.249,8.985-0.249c2.542,0,7.799,0.264,11.309,0.264
			c3.433,0,3.697-3.471,2.235-3.785c-6.553-1.41-9.132-3.353-11.34-5.207C158.784,405.661,158.284,405.481,157.784,405.481z"/>
		<g>
			<polygon style="opacity:0.2;" points="158.054,387.09 157.768,397.072 149.402,397.072 149.688,387.09 			"/>
			<polygon style="opacity:0.2;" points="103.066,364.745 110.763,368.022 105.574,376.662 97.877,373.384 			"/>
		</g>
		<g>
			<path style="fill:#407BFF;" d="M167.782,167.731c0,0,3.984,1.403-3.996,50.471c-13.477,0-27.405,0-33.962,0
				c0.57-13.822,0.586-22.346-6.02-50.713c0,0,7.116-1.548,14.422-1.9c5.715-0.275,10.398-0.458,15.422,0.001
				C160.27,166.193,167.782,167.731,167.782,167.731z"/>
			<path style="opacity:0.4;fill:#FFFFFF;" d="M167.782,167.731c0,0,3.984,1.403-3.996,50.471c-13.477,0-27.405,0-33.962,0
				c0.57-13.822,0.586-22.346-6.02-50.713c0,0,7.116-1.548,14.422-1.9c5.715-0.275,10.398-0.458,15.422,0.001
				C160.27,166.193,167.782,167.731,167.782,167.731z"/>
		</g>
		<path style="fill:#FFFFFF;" d="M138.224,165.584c5.715-0.268,10.395-0.453,15.425,0.009c0.832,0.074,1.683,0.167,2.525,0.268
			c0.564,0.971,0.99,2.275,0.462,3.607c-1.082,2.691-4.985,3.005-7.833,3.005c-10.515,0-12.29-6.141-12.365-6.399l-0.102-0.37
			C136.966,165.658,137.595,165.612,138.224,165.584z"/>
		<path style="fill:#FFC3BD;" d="M139.753,148.223c0.973,4.962,1.944,14.054-1.528,17.365c0,0,1.357,5.034,10.577,5.034
			c10.138,0,4.845-5.033,4.845-5.033c-5.533-1.321-5.391-5.427-4.427-9.282L139.753,148.223z"/>
		<path style="fill:#263238;" d="M140.763,144.691c-1.189,3.93,0.454,13.231,2.907,16.828c-4.833-2.765-6.465-11.21-6.465-11.21
			L140.763,144.691z"/>
		<path style="opacity:0.2;" d="M143.612,151.522l5.603,4.781c-0.231,0.913-0.411,1.838-0.476,2.737
			c-2.114-0.305-5.018-2.626-5.242-4.839C143.386,153.097,143.432,152.036,143.612,151.522z"/>
		<path style="fill:#FFC3BD;" d="M135.173,139.36c1.935,8.07,2.582,11.528,7.438,14.991c7.305,5.209,16.795,1.068,17.31-7.418
			c0.464-7.638-2.779-19.553-11.335-21.396C140.156,123.721,133.237,131.29,135.173,139.36z"/>
		<g>
			<path style="fill:#407BFF;" d="M163.786,218.201c0,0,6.596,64.416,6.048,89.917c-0.57,26.525-10.29,87.02-10.29,87.02h-11.308
				c0,0,1.79-58.945,0.79-84.995c-1.09-28.399-10.111-91.942-10.111-91.942H163.786z"/>
			<path style="opacity:0.4;" d="M163.786,218.201c0,0,6.596,64.416,6.048,89.917c-0.57,26.525-10.29,87.02-10.29,87.02h-11.308
				c0,0,1.79-58.945,0.79-84.995c-1.09-28.399-10.111-91.942-10.111-91.942H163.786z"/>
		</g>
		<polygon style="fill:#407BFF;" points="147.256,395.544 160.524,395.544 161.497,391.312 146.639,390.794 		"/>
		<path style="opacity:0.2;" d="M149.136,234.229c8.342,16.781,1.675,47.392-1.275,58.781c-1.513-17.105-4.063-38.013-6.051-53.368
			C143.074,230.955,145.289,226.492,149.136,234.229z"/>
		<g>
			<path style="fill:#407BFF;" d="M154.817,218.201c0,0-7.693,66.969-13.503,88.469c-6.898,25.526-33.124,69.004-33.124,69.004
				l-10.492-4.467c0,0,16.236-49.357,21.51-62.805c11.256-28.701,1.621-71.472,10.616-90.2H154.817z"/>
			<path style="opacity:0.4;" d="M154.817,218.201c0,0-7.693,66.969-13.503,88.469c-6.898,25.526-33.124,69.004-33.124,69.004
				l-10.492-4.467c0,0,16.236-49.357,21.51-62.805c11.256-28.701,1.621-71.472,10.616-90.2H154.817z"/>
		</g>
		<polygon style="fill:#407BFF;" points="96.255,371.241 109.271,376.783 112.399,373.281 97.382,366.071 		"/>
		<path style="fill:#263238;" d="M147.948,139.465c0.117,0.664,0.563,1.141,0.998,1.065c0.434-0.076,0.692-0.677,0.575-1.341
			c-0.117-0.664-0.563-1.141-0.998-1.065C148.089,138.201,147.831,138.801,147.948,139.465z"/>
		<path style="fill:#263238;" d="M155.457,138.146c0.117,0.664,0.563,1.141,0.998,1.065c0.434-0.076,0.692-0.677,0.575-1.341
			c-0.117-0.664-0.563-1.141-0.998-1.065C155.598,136.881,155.34,137.481,155.457,138.146z"/>
		<path style="fill:#263238;" d="M155.847,136.875l1.515-0.74C157.361,136.135,156.762,137.525,155.847,136.875z"/>
		<path style="fill:#ED847E;" d="M153.673,139.636c0,0,1.63,2.662,3.113,3.824c-0.733,0.973-2.29,0.861-2.29,0.861L153.673,139.636z
			"/>
		<path style="fill:#263238;" d="M151.488,147.447c0.355,0.001,0.732-0.03,1.131-0.1c0.108-0.019,0.18-0.122,0.161-0.23
			c-0.019-0.107-0.119-0.179-0.23-0.161c-2.913,0.514-4.635-1.284-4.652-1.303c-0.075-0.08-0.2-0.085-0.28-0.01
			c-0.08,0.075-0.085,0.2-0.01,0.28C147.674,145.995,149.059,147.444,151.488,147.447z"/>
		<path style="fill:#263238;" d="M138,134.625c0.167,2.442,1,6.333,1,6.333s5.005-6.323,5.827-9.714
			c-0.514,2.723-1.145,3.851-1.145,3.851s6.73-1.462,7.386-5.905c-0.064,3.621-0.655,5.905-0.655,5.905s6.42-2.516,5.83-6.78
			c-0.59-4.264-10.454-5.908-14.975-4.47c-4.521,1.439-8.989,6.115-7.655,12.536c1.334,6.421,3.905,8.832,3.905,8.832
			S135.637,138.735,138,134.625z"/>
		<path style="fill:#FFC3BD;" d="M134.821,145.442c0.647,1.594,1.97,2.741,3.281,3.271c1.972,0.796,3.193-0.91,2.842-2.895
			c-0.316-1.786-1.723-4.353-3.797-4.304C135.104,141.562,134.081,143.62,134.821,145.442z"/>
		<path style="fill:#263238;" d="M139.213,131.552c-1.002,3.982,1.079,13.195,3.699,16.672c-4.958-2.534-6.987-10.892-6.987-10.892
			L139.213,131.552z"/>
		<path style="fill:#263238;" d="M145.264,137.19c0.1-0.03,0.188-0.1,0.239-0.201c0.792-1.579,2.237-1.761,2.254-1.763
			c0.214-0.026,0.373-0.221,0.349-0.439c-0.025-0.217-0.221-0.373-0.439-0.349c-0.076,0.009-1.89,0.235-2.873,2.195
			c-0.098,0.195-0.019,0.433,0.177,0.532C145.066,137.212,145.17,137.219,145.264,137.19z"/>
		<path style="fill:#263238;" d="M158.189,134.092c0.098,0,0.197-0.036,0.274-0.109c0.158-0.151,0.164-0.402,0.014-0.56
			c-1.511-1.586-3.313-1.273-3.39-1.258c-0.215,0.04-0.357,0.246-0.317,0.462c0.04,0.215,0.246,0.356,0.461,0.318
			c0.07-0.013,1.471-0.236,2.673,1.026C157.981,134.051,158.085,134.092,158.189,134.092z"/>
		<path style="fill:#FFC3BD;" d="M127.927,179.36c-1.388,4.393-2.714,9.006-3.843,13.54c-1.085,4.555-2.061,9.146-2.49,13.627
			l-0.083,0.841c-0.018,0.272-0.028,0.334-0.028,0.567c0.004,0.41,0.034,0.895,0.104,1.413c0.117,1.03,0.316,2.142,0.549,3.258
			c0.479,2.236,1.051,4.533,1.683,6.817c0.603,2.297,1.258,4.599,1.945,6.894l2.032,6.907l-3.717,1.526
			c-2.279-4.361-4.258-8.804-6.109-13.381c-0.888-2.302-1.76-4.621-2.478-7.067c-0.362-1.226-0.703-2.472-0.971-3.828
			c-0.132-0.673-0.239-1.391-0.302-2.187c-0.032-0.37-0.038-0.913-0.031-1.244l0.035-0.968c0.066-2.592,0.343-5.11,0.699-7.603
			c0.332-2.499,0.824-4.942,1.345-7.376c1.059-4.88,2.339-9.586,3.989-14.368L127.927,179.36z"/>
		<g>
			<path style="fill:#407BFF;" d="M123.803,167.488c-3.403,1.035-7.489,12.751-7.489,12.751l13.201,9.438
				c0,0,4.814-9.781,3.384-14.179C131.41,170.919,127.686,166.308,123.803,167.488z"/>
			<path style="opacity:0.4;fill:#FFFFFF;" d="M123.803,167.488c-3.403,1.035-7.489,12.751-7.489,12.751l13.201,9.438
				c0,0,4.814-9.781,3.384-14.179C131.41,170.919,127.686,166.308,123.803,167.488z"/>
		</g>
		<path style="fill:#407BFF;" d="M105.56,386.818c0.312-0.097,0.551-0.33,0.71-0.695c0.135-0.309,0.051-0.541-0.044-0.681
			c-0.598-0.884-3.62-0.818-3.963-0.807c-0.078,0.002-0.149,0.051-0.178,0.125c-0.029,0.073-0.012,0.157,0.044,0.213
			c0.788,0.786,2.266,2.073,3.31,1.875C105.48,386.841,105.521,386.83,105.56,386.818z M102.755,385.026
			c1.209,0.009,2.828,0.173,3.143,0.639c0.04,0.058,0.077,0.146,0.009,0.3c-0.125,0.287-0.305,0.448-0.542,0.494
			C104.801,386.567,103.843,386.036,102.755,385.026z"/>
		<path style="fill:#407BFF;" d="M103.642,384.786c0.921-0.286,1.898-0.794,2.109-1.365c0.064-0.173,0.112-0.509-0.279-0.82
			c-0.248-0.197-0.535-0.269-0.853-0.214c-1.191,0.21-2.466,2.255-2.52,2.342c-0.037,0.06-0.039,0.135-0.006,0.197
			c0.033,0.062,0.097,0.102,0.168,0.104C102.597,385.043,103.11,384.952,103.642,384.786z M104.565,382.808
			c0.042-0.013,0.083-0.023,0.124-0.03c0.204-0.035,0.38,0.008,0.537,0.133c0.199,0.159,0.187,0.282,0.154,0.372
			c-0.203,0.55-1.721,1.208-2.73,1.332C103.082,383.994,103.878,383.022,104.565,382.808z"/>
		<path style="fill:#407BFF;" d="M160.924,406.943c0.831,0,1.598-0.129,2.028-0.515c0.273-0.245,0.393-0.57,0.357-0.964
			c-0.021-0.236-0.137-0.418-0.336-0.527c-1.025-0.562-4.358,1.141-4.734,1.337c-0.075,0.039-0.117,0.12-0.105,0.204
			c0.012,0.083,0.075,0.15,0.158,0.166C159.002,406.785,160.003,406.943,160.924,406.943z M162.414,405.213
			c0.153,0,0.279,0.022,0.37,0.072c0.081,0.045,0.122,0.111,0.131,0.215c0.024,0.267-0.051,0.475-0.229,0.634
			c-0.507,0.456-1.884,0.537-3.736,0.228C160.098,405.811,161.621,405.213,162.414,405.213z"/>
		<path style="fill:#407BFF;" d="M158.33,406.648c0.028,0,0.056-0.006,0.081-0.018c0.997-0.45,2.968-2.254,2.814-3.201
			c-0.037-0.224-0.195-0.503-0.744-0.559c-0.409-0.038-0.775,0.074-1.097,0.342c-1.051,0.876-1.244,3.126-1.252,3.222
			c-0.006,0.07,0.026,0.138,0.083,0.178C158.25,406.635,158.29,406.648,158.33,406.648z M160.322,403.258
			c0.04,0,0.079,0.002,0.12,0.006c0.362,0.037,0.385,0.181,0.393,0.228c0.093,0.569-1.245,1.987-2.261,2.603
			c0.097-0.655,0.376-2.006,1.065-2.579C159.846,403.343,160.071,403.258,160.322,403.258z"/>
		<g>
			<path style="fill:#263238;" d="M129.315,216.208l-0.868,3.04c-0.119,0.236,0.161,0.476,0.553,0.476h34.954
				c0.306,0,0.56-0.15,0.579-0.342l0.306-3.04c0.021-0.211-0.244-0.389-0.579-0.389h-34.392
				C129.615,215.953,129.391,216.057,129.315,216.208z"/>
		</g>
		<g>
			<path style="fill:#407BFF;" d="M133.934,220.054h-0.921c-0.184,0-0.323-0.094-0.311-0.21l0.432-3.95
				c0.013-0.116,0.173-0.21,0.356-0.21h0.921c0.183,0,0.323,0.095,0.311,0.21l-0.432,3.95
				C134.277,219.959,134.117,220.054,133.934,220.054z"/>
			<path style="opacity:0.4;" d="M133.934,220.054h-0.921c-0.184,0-0.323-0.094-0.311-0.21l0.432-3.95
				c0.013-0.116,0.173-0.21,0.356-0.21h0.921c0.183,0,0.323,0.095,0.311,0.21l-0.432,3.95
				C134.277,219.959,134.117,220.054,133.934,220.054z"/>
		</g>
		<g>
			<path style="fill:#407BFF;" d="M161.365,220.054h-0.921c-0.184,0-0.323-0.094-0.311-0.21l0.432-3.95
				c0.013-0.116,0.173-0.21,0.357-0.21h0.921c0.183,0,0.323,0.095,0.311,0.21l-0.432,3.95
				C161.709,219.959,161.548,220.054,161.365,220.054z"/>
			<path style="opacity:0.4;" d="M161.365,220.054h-0.921c-0.184,0-0.323-0.094-0.311-0.21l0.432-3.95
				c0.013-0.116,0.173-0.21,0.357-0.21h0.921c0.183,0,0.323,0.095,0.311,0.21l-0.432,3.95
				C161.709,219.959,161.548,220.054,161.365,220.054z"/>
		</g>
		<g>
			<path style="fill:#407BFF;" d="M147.649,220.054h-0.921c-0.184,0-0.323-0.094-0.311-0.21l0.432-3.95
				c0.013-0.116,0.173-0.21,0.357-0.21h0.921c0.183,0,0.323,0.095,0.311,0.21l-0.432,3.95
				C147.993,219.959,147.833,220.054,147.649,220.054z"/>
			<path style="opacity:0.4;" d="M147.649,220.054h-0.921c-0.184,0-0.323-0.094-0.311-0.21l0.432-3.95
				c0.013-0.116,0.173-0.21,0.357-0.21h0.921c0.183,0,0.323,0.095,0.311,0.21l-0.432,3.95
				C147.993,219.959,147.833,220.054,147.649,220.054z"/>
		</g>
		<path style="fill:#263238;" d="M148.338,138.195l1.515-0.74C149.852,137.454,149.253,138.845,148.338,138.195z"/>
		<path style="fill:#FFC3BD;" d="M127.512,232.094l7.168,5.499l-8.306,1.823c0,0-3.538-4.039-2.314-7.293L127.512,232.094z"/>
		<polygon style="fill:#FFC3BD;" points="136.436,244.401 129.399,245.551 125.555,238.326 134.68,237.593 		"/>
	</g>
</g>
</svg>
