<?xml version="1.0" encoding="UTF-8"?><svg id="_Ñëîé_1" xmlns="http://www.w3.org/2000/svg" viewBox="0 0 2600 2000"><rect id="_6" width="2600" height="2000" style="fill:transparent;"/><g id="_5"><path d="m332.01,1581.89c-4.6-14.11-9.15-28.74-13.53-43.47l10.79-3.21c4.35,14.63,8.87,29.16,13.44,43.18l-10.7,3.5Zm1929.53-18.23l-11.17-1.38c1.85-15.02,3.62-30.16,5.23-44.97l11.19,1.23c-1.62,14.87-3.39,30.05-5.25,45.13Zm-1955.48-69.02c-3.94-14.56-7.76-29.38-11.35-44.07l10.93-2.68c3.57,14.6,7.37,29.34,11.28,43.8l-10.86,2.95Zm1965.34-21.31l-11.2-1.06c1.42-15.09,2.74-30.26,3.92-45.1l11.22.89c-1.18,14.9-2.5,30.13-3.93,45.27Zm-1986.97-67.09c-3.25-14.83-6.34-29.82-9.19-44.57l11.05-2.14c2.83,14.65,5.9,29.56,9.13,44.29l-10.99,2.41Zm1994.13-23.51l-11.23-.71c.95-15.07,1.79-30.28,2.48-45.19l11.24.52c-.7,14.98-1.53,30.24-2.49,45.38Zm-2011.39-65.85c-2.5-15.01-4.82-30.15-6.89-44.99l11.14-1.55c2.05,14.74,4.35,29.78,6.84,44.69l-11.1,1.85Zm2015.6-24.95l-11.25-.33c.44-15.14.74-30.36.9-45.24l11.25.12c-.16,14.95-.46,30.24-.9,45.45Zm-2028.13-65.21c-1.68-15.16-3.14-30.41-4.34-45.33l11.22-.91c1.19,14.8,2.64,29.94,4.31,44.99l-11.18,1.24Zm2017.83-25.6c-.13-15.15-.42-30.37-.85-45.23l11.25-.33c.44,14.94.73,30.23.86,45.46l-11.25.1Zm-2025.12-65.17c-.75-15.25-1.24-30.56-1.47-45.51l11.25-.17c.23,14.82.72,30.01,1.46,45.14l-11.24.55Zm2022.46-25.25c-.77-15.13-1.72-30.32-2.82-45.13l11.22-.84c1.11,14.9,2.06,30.17,2.84,45.39l-11.24.58Zm-2012.57-65.59l-11.25-.23c.31-15.29.92-30.61,1.8-45.52l11.23.66c-.87,14.77-1.47,29.94-1.78,45.09Zm2005.84-24.58c-1.5-15.13-3.21-30.24-5.06-44.92l11.16-1.41c1.87,14.77,3.58,29.98,5.09,45.21l-11.2,1.12Zm-2000.5-65.49l-11.2-1.13c1.53-15.23,3.39-30.46,5.54-45.26l11.14,1.62c-2.12,14.63-3.97,29.69-5.48,44.76Zm1989.14-24.17c-2.34-15.03-4.91-30.01-7.64-44.52l11.06-2.08c2.75,14.62,5.34,29.72,7.7,44.87l-11.12,1.74Zm-1330.81-1.59c-15.64-2.47-26.95-9.59-42.61-21.9l7.11-8.73c13.72,10.75,23.64,17.2,36.7,19.43l-1.2,11.2Zm39.04-26.8l-10.02-5.12c5.15-10.1,9.7-24.11,13.53-41.65l10.99,2.41c-4.09,18.74-8.84,33.26-14.51,44.37Zm-114.68-27.41c-8.96-9.99-18.54-21.5-29.29-35.16l8.84-6.97c10.59,13.47,20.02,24.79,28.82,34.6l-8.37,7.53Zm-569.7-9.24l-11.05-2.15c2.91-15.04,6.21-30.03,9.8-44.56l10.92,2.7c-3.54,14.35-6.8,29.16-9.68,44.01Zm1959.41-23.7c-3.33-14.88-6.93-29.63-10.68-43.84l10.88-2.88c3.79,14.35,7.42,29.24,10.78,44.26l-10.98,2.46Zm-1252.96-29.36l-11.16-1.44c1.73-13.45,3.28-28.17,4.73-45.02l11.21.97c-1.47,17-3.04,31.88-4.79,45.48Zm-193.6-9.16c-9.15-12.37-18.63-25.44-26.81-36.72l9.11-6.62c8.16,11.26,17.63,24.31,26.74,36.63l-9.04,6.7Zm823.82-.93c-8.76,0-17.36-2.62-25.55-7.79l6-9.53c12.31,7.78,24.42,7.8,37.49,1.59l4.84,10.17c-7.73,3.69-15.39,5.56-22.78,5.56Zm-1315.03-24.27l-10.76-3.29c4.47-14.64,9.38-29.2,14.58-43.27l10.55,3.91c-5.13,13.87-9.96,28.22-14.37,42.65Zm1374.6-10.74l-8.27-7.64c8.53-9.25,17.68-20.66,27.96-34.89l9.12,6.61c-10.55,14.59-19.97,26.34-28.81,35.92Zm-117.12-7.75c-7.28-11.25-14.5-24.49-22.06-40.49l10.17-4.82c7.35,15.54,14.33,28.36,21.33,39.18l-9.44,6.13Zm657.17-4.99c-4.53-14.6-9.37-28.97-14.38-42.71l10.57-3.86c5.07,13.91,9.96,28.45,14.55,43.22l-10.75,3.34Zm-1476.92-24.78c-10.3-14.09-18.87-25.65-27-36.39l8.97-6.8c8.16,10.79,16.78,22.4,27.11,36.54l-9.08,6.65Zm255.25-8.37l-11.23-.73c.85-13.2,1.72-28.03,2.65-45.35l11.24.61c-.93,17.36-1.8,32.23-2.66,45.47Zm-661.74-27.73l-10.29-4.55c6.18-14.01,12.76-27.76,19.75-41.21l9.98,5.21c-6.88,13.23-13.36,26.77-19.44,40.55Zm1397.95,0l-9.4-6.19c8-12.17,16.26-25.07,24.62-38.09l9.47,6.09c-8.38,13.06-16.65,25.97-24.68,38.19Zm-211.89-16.66c-5.1-12.8-10.36-26.76-16.1-42.69l10.58-3.82c5.7,15.81,10.92,29.66,15.97,42.34l-10.45,4.17Zm666.42-7.03c-6.05-14.11-12.45-27.81-19.02-40.73l10.03-5.11c6.68,13.14,13.19,27.07,19.33,41.4l-10.34,4.44Zm-1500.77-12.3c-10.21-12.69-19.71-23.98-29.06-34.53l8.42-7.48c9.46,10.68,19.08,22.1,29.4,34.93l-8.76,7.07Zm315.03-27.2l-11.24-.57c.76-15.05,1.51-30.11,2.31-45.43l11.24.59c-.8,15.31-1.56,30.37-2.31,45.41Zm780.56-13.06l-9.39-6.21c9.4-14.24,17.81-26.56,25.71-37.66l9.16,6.54c-7.82,10.99-16.16,23.21-25.48,37.34Zm-1405.54-3.18l-9.48-6.06c8.84-13.86,17.96-26.39,27.1-37.22l8.6,7.27c-8.82,10.45-17.64,22.57-26.21,36.01Zm1113.18-22.92c-5.16-15.14-10.22-30.29-14.5-43.11l10.67-3.56c4.27,12.8,9.32,27.93,14.47,43.04l-10.65,3.64Zm-863.22-.79c-11.5-11.21-22.81-21.11-33.61-29.44l6.86-8.93c11.15,8.59,22.79,18.78,34.6,30.29l-7.85,8.07Zm1519.9-.48c-8.06-13.17-16.52-25.63-25.13-37.03l8.97-6.8c8.83,11.69,17.49,24.45,25.75,37.94l-9.59,5.89Zm-1712.08-42.47l-6.82-8.96c13.44-10.26,27.42-17.66,41.57-22l3.29,10.77c-12.86,3.94-25.66,10.73-38.04,20.18Zm1400.4-3.45l-8.74-7.09c10.55-13.04,20.55-24.25,30.57-34.29l7.96,7.96c-9.74,9.76-19.48,20.69-29.79,33.42Zm-828.35-4.43l-11.23-.67c.97-16.38,1.94-31.25,2.96-45.46l11.22.8c-1.01,14.17-1.98,29-2.95,45.33Zm-450.67-2.36c-14.04-7-27.85-11.46-41.05-13.27l1.53-11.16c14.41,1.98,29.4,6.8,44.53,14.35l-5.01,10.09Zm1536.64-18.21c-10.83-11.11-22.05-20.92-33.34-29.15l6.63-9.11c11.8,8.6,23.49,18.83,34.77,30.39l-8.05,7.87Zm-631.45-14.03c-5.6-16.76-10.21-30.43-14.52-43.01l10.64-3.65c4.32,12.61,8.94,26.3,14.55,43.09l-10.67,3.57Zm437.3-23.15l-6.45-9.23c13.84-9.69,27.82-16.87,41.55-21.34l3.47,10.71c-12.67,4.12-25.64,10.8-38.57,19.85Zm122.78-13.8c-13.94-5.89-28.04-9.53-41.93-10.83l1.05-11.22c15.03,1.41,30.26,5.33,45.26,11.66l-4.37,10.38Zm-1008.05-19.01l-11.21-1c1.4-15.81,2.93-31.07,4.53-45.37l11.18,1.26c-1.6,14.21-3.11,29.39-4.51,45.11Zm418.48-29.9c-5.44-15.19-10.56-29.08-15.67-42.46l10.51-4.02c5.13,13.45,10.28,27.41,15.75,42.68l-10.59,3.8Zm-408.24-60.13l-11.14-1.61c2.28-15.77,4.78-30.94,7.44-45.09l11.06,2.08c-2.63,13.99-5.1,29-7.36,44.61Zm375.86-24.4c-6.05-14.56-12.14-28.49-18.12-41.41l10.21-4.73c6.04,13.05,12.19,27.12,18.3,41.82l-10.39,4.32Zm-358.95-64.3l-10.92-2.73c3.92-15.73,8.25-30.55,12.86-44.04l10.65,3.64c-4.51,13.19-8.74,27.7-12.59,43.13Zm320.85-17.54c-7.4-13.95-14.96-27.06-22.47-38.94l9.51-6.02c7.66,12.12,15.36,25.47,22.9,39.68l-9.94,5.28Zm-291.36-66.87l-10.09-4.99c7.39-14.99,15.58-28.24,24.35-39.39l8.84,6.97c-8.29,10.53-16.06,23.12-23.1,37.41Zm243.1-8.61c-9.83-12.34-19.98-23.27-30.16-32.49l7.55-8.36c10.63,9.63,21.2,21.01,31.41,33.82l-8.8,7.03Zm-188.6-57.99l-6.07-9.49c13.33-8.54,28.02-14.1,43.65-16.51l1.71,11.13c-14.08,2.17-27.3,7.17-39.3,14.86Zm122.94,0c-13.11-7.07-26.76-11.91-40.58-14.38l1.97-11.09c15,2.67,29.79,7.91,43.95,15.55l-5.34,9.92Z" style="fill:#b3d2ff;"/><path d="m546.44,1645.49s-242.66-692.75-45.44-856.49c131.82-109.45,240.16,89.21,406.93-38.43,148.47-113.64,101.27-459.36,338.07-507.15,266.23-53.73,324.86,591.1,543.34,502.96,265.12-106.95,528.84,110.16,300.94,900.51l-1543.83-1.4Z" style="fill:#bad2f4;"/><path d="m2332.85,1402.88c-93.38-14.48-78.14,116.3-211.24,116.3-121.7,0-160.63-498.04-249.17-355.67-453.93,729.86-190.34-310.39-551.34-323.61-163.23-5.98-272.01,176.06-312.12,498.37-58.14,291.38-192.99-222.24-331.75-174.48-88.19,30.35-78.09,355.39-199.79,355.39-133.1,0-117.87-130.78-211.24-116.3-100.54,15.59-130.56,247.06-130.56,247.06h2327.79s-30.03-231.48-130.56-247.06Z" style="fill:#c6dcf7;"/><path d="m2250.16,1544.45c-85.9-6.18-71.89,49.66-194.34,49.66-111.96,0-108.88-125.16-183.8-151.76-137.97-48.98-251.71,198.93-305.2,74.51-101.59-330.15-397.89-495.71-534.59,0-53.49,124.42-178.58-97.59-305.2-74.51-77.94,14.21-71.84,151.76-183.8,151.76-122.45,0-108.43-55.84-194.34-49.66-92.49,6.66-120.12,105.5-120.12,105.5h2141.51s-27.63-98.84-120.12-105.5Z" style="fill:#d2e5f7;"/><path d="m135.63,1649.95s-14.6,59.47,53.06,74.36c92.54,20.36,635.75,73.87,503.79,114.53-74.49,22.95,38.03,54.12,400.87,65.59,362.84,11.48,985.45-33.49,776.08-100.02-209.37-66.53,645.96-16.07,594-154.46H135.63Z" style="fill:#bad2f4;"/></g><g id="_4"><circle cx="1300" cy="1000" r="593" style="fill:#eb5648;"/><circle cx="1300" cy="1000" r="548" style="fill:#fff;"/><circle cx="1300" cy="1000" r="509" style="fill:#eb5648;"/><path d="m1558.78,965.85c-21.9-11.75-49.18-3.53-60.93,18.37l-42.26,78.72c-6.93-12.71-15.19-24.59-24.6-35.46v-287.98c0-20.71-16.79-37.5-37.5-37.5s-37.5,16.79-37.5,37.5v233.79c-5.81-2.41-11.76-4.57-17.83-6.43v-289.36c0-20.71-16.79-37.5-37.5-37.5s-37.5,16.79-37.5,37.5v281.12c-6.02.47-11.97,1.21-17.83,2.2v-237.32c0-20.71-16.79-37.5-37.5-37.5s-37.5,16.79-37.5,37.5v266.38c-6.19,3.98-12.14,8.31-17.83,12.92v-184.81c0-20.71-16.79-37.5-37.5-37.5s-37.5,16.79-37.5,37.5v329c0,2.23.2,4.4.58,6.52-.05,1.82-.08,3.65-.08,5.48,0,111.01,89.99,201,201,201,83.34,0,154.83-50.72,185.29-122.98l112.86-210.24c11.75-21.9,3.53-49.18-18.37-60.93Z" style="fill:#fff;"/></g><g id="_3"><path d="m1692.76,305.88v91.57c-1.31,7.51-7.87,13.22-15.76,13.22s-14.45-5.71-15.76-13.22v-91.57c0-8.71,7.05-15.76,15.76-15.76s15.76,7.05,15.76,15.76Z" style="fill:#8fb3f2;"/><circle cx="1677" cy="439.67" r="16" style="fill:#8fb3f2;"/><path d="m553.73,860.84c14.39-14.86,23.27-35.07,23.27-57.34,0-45.49-37.01-82.5-82.5-82.5-22.26,0-42.48,8.88-57.34,23.27-.34.28-.68.58-1,.9-.32.32-.62.66-.9,1-14.39,14.86-23.27,35.07-23.27,57.34,0,45.49,37.01,82.5,82.5,82.5,22.26,0,42.48-8.88,57.34-23.27.34-.28.68-.58,1-.9.32-.32.62-.66.9-1Zm-1.73-57.34c0,11.34-3.31,21.91-9,30.82l-79.33-79.33c8.92-5.69,19.49-9,30.82-9,31.71,0,57.5,25.79,57.5,57.5Zm-115,0c0-11.34,3.31-21.91,9-30.82l79.33,79.33c-8.92,5.69-19.49,9-30.82,9-31.71,0-57.5-25.79-57.5-57.5Z" style="fill:#8fb3f2;"/><path d="m2091.74,803.84c14.38-14.86,23.26-35.07,23.26-57.34,0-45.49-37.01-82.5-82.5-82.5-22.26,0-42.48,8.88-57.34,23.26-.35.28-.68.58-1,.9-.32.32-.62.66-.9,1-14.38,14.86-23.26,35.07-23.26,57.34,0,45.49,37.01,82.5,82.5,82.5,22.26,0,42.48-8.88,57.34-23.26.35-.28.68-.58,1-.9.32-.32.62-.66.9-1Zm-1.74-57.34c0,11.34-3.31,21.91-9,30.82l-79.33-79.33c8.92-5.69,19.49-9,30.82-9,31.71,0,57.5,25.79,57.5,57.5Zm-115,0c0-11.34,3.31-21.91,9-30.82l79.33,79.33c-8.92,5.69-19.49,9-30.82,9-31.71,0-57.5-25.79-57.5-57.5Z" style="fill:#f49f9f;"/><path d="m813.7,421l43.08-43.08c6.16-6.16,6.16-16.14,0-22.29-6.16-6.16-16.14-6.16-22.29,0l-43.08,43.08-43.08-43.08c-6.16-6.16-16.14-6.16-22.29,0-6.16,6.16-6.16,16.14,0,22.29l43.08,43.08-43.08,43.08c-6.16,6.16-6.16,16.14,0,22.29,3.08,3.08,7.11,4.62,11.15,4.62s8.07-1.54,11.15-4.62l43.08-43.08,43.08,43.08c3.08,3.08,7.11,4.62,11.15,4.62s8.07-1.54,11.15-4.62c6.16-6.16,6.16-16.14,0-22.29l-43.08-43.08Z" style="fill:#ffd2d2;"/></g><g id="_2"><path d="m1876.55,1120.89c-40.94,35.41-102.02,46.62-147.35,12.13v-.05c-13.49-9.87-27.11-25.75-36.59-42.35l11.13-18.04c88.37,54.51,123.35-38.51,195.21-45.76l-14.38,21s-6.77,71.62-8.02,73.07Z" style="fill:#9358e0;"/><path d="m1957.92,1741.95l1.35-.7c0,.94,1.17,4.22,2.11,4.22l39.87.82c.94,0,1.52-1.78,1.52-2.72l3.4-.97c0-5.97-.49-8.14-3.13-12.76-9.69-12.88,1.88-70.51,1.54-85.56,2.39-4.12-41.99-.89-42.61-1.86-1,0-1.78.85-1.7,1.85l5.22,65.84c2.34,12.5-7.25,20.06-7.58,31.84Z" style="fill:#f99370;"/><path d="m1785.08,1747.69h79.42c6.93-.28,6.88-7.35,5.6-12.83-4.37-19.77,3.36-65.15,4.79-85.48.38-3.72-2.54-6.96-6.28-6.96h-35.05c-3.8,0-6.74,3.33-6.27,7.1l6.38,50.83c3.46,22.08-22.88,26.29-37.89,28.73-9.89.72-26.42,14.21-10.7,18.6Z" style="fill:#f99370;"/><path d="m1873.13,1739.45c-.21,3.89-2.15,8.34-6.66,8.24,0,0-82.38,0-82.38,0-19.43-7.21,8.49-32.99,46.53-32.83,15.46,4.24,38.19,1.21,38.19,1.21,0,0,4.72,7,4.32,23.38Z" style="fill:#103663;"/><path d="m1999.86,1747.69h-35.21c-17.16-2.34-4.92-32.66,17.6-32.89,22.64-.23,34.76,30.57,17.61,32.89Z" style="fill:#103663;"/><path d="m1803.73,1736.54c1.21.02,2.1-1.29,1.62-2.41-3.76-9.27-10.77-12.12-11.07-12.24-2.09-.86-3.41,2.45-1.29,3.25.27.11,5.96,2.51,9.12,10.3.28.68.93,1.09,1.62,1.09Z" style="fill:#e8c0a6;"/><path d="m1817.33,1734.9c1.15.02,2.04-1.17,1.67-2.27-3.07-11.66-18.18-20.4-14.1-12.24.14.07,7.99,4.31,10.76,13.27.23.75.92,1.23,1.67,1.23Z" style="fill:#e8c0a6;"/><path d="m1832.81,1732.99c1.18.02,2.06-1.21,1.65-2.33-3.62-11.59-17.35-21.97-14.2-13.41.08.05,7.63,5.17,10.9,14.56.25.72.93,1.18,1.65,1.18Z" style="fill:#e8c0a6;"/><path d="m1994.88,1725.27c1.71.06,2.43-2.43.89-3.26-11.81-6.91-26.55-.37-27.17-.08-2.07.91-.62,4.16,1.44,3.19.14-.44,15-5.77,24.84.16Z" style="fill:#e8c0a6;"/><path d="m1778.32,1739.45h94.8c-.35,2.89-1.15,5.7-2.6,8.24h-86.44c-4.26,0-7.28-4.26-5.76-8.24Z" style="fill:#0f2e54;"/><path d="m1999.86,1747.69h-35.21c-4.48,0-8.08-3.77-7.81-8.24h50.83c.27,4.47-3.33,8.25-7.81,8.24Z" style="fill:#0f2e54;"/><path d="m1887.91,936.19s-.42-25.74,22.85-30.31l12.2,12.65-35.05,17.66Z" style="fill:#8c4225;"/><path d="m2010.15,1702.75s-37.55,9.12-56.9-.68c-10.07-63.15-38.02-238.98-47.76-359.48-.37,7.03-20.83,290.38-24.72,359.48-13.36,4.47-40.22,9.86-55.25-.96-6.75-72.74-28.43-312.21,4.23-507.8,0,0,89.5,9.96,159.39-11.16,19.24,62.04,24.33,446.16,21.02,520.61Z" style="fill:#1d3f70;"/><path d="m1839.97,1695.07c-9.18-209.04,11.88-388.83,8.72-390.98-5.52.44-26.69,181.84-8.72,390.98Z" style="fill:#163356;"/><path d="m1980.6,1695.07c-3.64-214.81-35.57-418.27-40.39-419.05-3.61,2.7,27.77,203.82,40.39,419.05Z" style="fill:#163356;"/><path d="m1898.3,1026.1c-1.95-17.03.71-41.6,3.09-51.71,4.28-19.94,35.9-12.22,30.65,7.38-1.02-.64-4.28,35.49-2.03,45.52,29.67,8.9-59.57,38.17-31.7-1.19Z" style="fill:#f99370;"/><path d="m1932.33,980.12c-.08.55-.18,1.11-.3,1.64-.73-.49-2.79,19.45-2.81,33.92-13.6,6.18-28.75,3.46-31.53,2.89-.3-18.33,1.39-35.02,4.08-45.51,5.51-17.74,33.38-11.28,30.56,7.06Z" style="fill:#e57d61;"/><path d="m1953.42,972.68c-4.5,13.62-11.76,28.63-24.29,36.1h-.02c-5.09,3-10.86,4.47-16.82,4.68-33.48,4.52-66.46-41.06-36.33-63.74,4.97-3.54,9.31-8.67,11.95-13.54,26.84-51.76,81.89-11.14,65.51,36.5Z" style="fill:#f99370;"/><path d="m1840.21,1098.13l-13.78,50.57c-29.52,9.07-60.99,7.02-88.76-10.02,30.52,17.24,72.47,7.52,79.09-2.61,6.97-10.72,22.5-36.39,23.46-37.94Z" style="fill:#7640cc;"/><path d="m2002.16,1266.59c-3.2,3.89-6.61,7.78-10.22,11.69,0,0-17.58,3.31-31.35-15.01,56.15-119.04-52.26-130.15-30.59-235.99,72.44,8.55,173.2,116.66,72.16,239.31Z" style="fill:#9358e0;"/><path d="m1901.43,955.48c-.89-2.64,3.27-3.97,4.08-1.31.89,2.64-3.27,3.97-4.08,1.31Z" style="fill:#c16256;"/><path d="m1884.11,949.63c-.89-2.64,3.27-3.97,4.08-1.31.89,2.64-3.27,3.97-4.08,1.31Z" style="fill:#c16256;"/><path d="m1953.42,972.68c-4.5,13.62-11.76,28.63-24.29,36.1h-.02c-1.04.61-2.11,1.16-3.21,1.65,9.75-6.99,17.5-24.11,17.5-24.11l.46-15.47c-11.36-15.93-3.03-30.46-3.03-30.46-23.72,2.72-29.11-12.51-29.11-12.51-7.32-.23-14.29-5.28-14.29-5.28,32.63-32.71,70.15,14.24,56.01,50.08Z" style="fill:#e57d61;"/><path d="m1889.27,969.24c1.39.43,2.58-1.52.77-1.68-2.85.54-9.09-2.4-5.64-3.81,4.93-1.68,12.63-12.97,8.13-10.95-.04.08-4.32,7.9-8.66,9.42-5.96,2.95,1.29,7.03,5.41,7.02Z" style="fill:#c16256;"/><path d="m2002.16,1266.59c-3.2,3.89-6.61,7.78-10.22,11.69,0,0-17.91,2.51-31.68-15.81,2.02-4.91,4.26-8.11,5.98-12.99,0,0,10.64,11.91,35.91,17.11Z" style="fill:#7640cc;"/><path d="m1993.21,1280.64c3.79,1.14,7.78-3.35,2.63-4.65-27.87,1.22-35.29-17.18-35.59-17.96-12.08-6.8,2.76,24.29,32.96,22.62Z" style="fill:#163356;"/><path d="m1816.74,1277.39s5.47,23.45,49.21,35.02c12.53,3.31,19.77,1.68,21.61-7.01.92-4.36,3.3-11.95,7.68-14.77,0,0,9.79,4.23,13.48,10.22,8.1,13.15,20.3,1.2,26.24-12.56,7.35-17.02,30.9-34.4,34.97-48.68l-153.19,37.78Z" style="fill:#f4d4be;"/><path d="m1995,1248.4c-1.42,2.52-2.27,2.12-3.73.66-39.3-29.35-53.37,34.78-95.71,35.93-43.1,4.27-67.08,6.7-78.82-7.6-20.5-31.77,12.1-173.78,38.47-208.17,11.55-17.88,32.04-33.82,43.08-43.09-.23.93-6.1,25.35,31.72,1.17,1.9.8,13.89,12.5,13.14,18.76,1.92,28.75,70.14,170.06,51.86,202.36Z" style="fill:#9358e0;"/><path d="m1885.86,899.5s11.09-3.05,22.45,1.41c1.3-4.31,3.96-8.29,8.27-11.44,1.85,5.24,4.49,10.27,7.49,14.96,1.03-9.85,7.1-17.84,7.1-17.84,1.62,9.44,14.67,16.22,20.82,26.44,0,0,34.78,11.93,9.95,42.46h0c-1.02,11.3-6.54,22.73-6.54,22.73-18.26-16.67-14.32-36.71-6.03-41.93-14.88,5.28-28.13-.98-35.62-10.85-11.06-1.84-24.59-7.86-27.9-25.95Z" style="fill:#8c4225;"/><path d="m1972.25,1257.43l-8.62-1.79c34.45-77.55-6.07-110.33-27.5-154.02,49.69,57.5,57.21,89.03,36.11,155.81Z" style="fill:#7640cc;"/><path d="m1961.17,981.18c-5.7,15.31-24.94,7.9-18.9-7.28,5.7-15.31,24.94-7.9,18.9,7.28Z" style="fill:#f99370;"/><path d="m1955.72,983.66c3.52-3.68,3.51-9.87,1.91-11.58-2.92-3-8.46-2.64-8.47-.9.74,1.76,4.5-1.12,7.2,1.91,2.9,2.28-2.9,9.65-.64,10.58Z" style="fill:#c16256;"/><path d="m1948.42,981.34c1.24-.09,3.25-5.71,9.38-5.34.44.05.84-.29.88-.73-4-4.05-13.89,6.15-10.27,6.07Z" style="fill:#c16256;"/><path d="m1941.63,1029.36c.2,14.43-36.81,27.16-38.9,27.18l-4.44-13.13c-5.7,1.41-10.71,9.38-10.71,9.38-16.42-15.64-.98-29.28,10.71-26.7,0,0,0,0,0,.02-.23.93-2.81,22.34,31.58.42,4.43-2.05,11.77,2.82,11.77,2.82Z" style="fill:#f4d4be;"/><path d="m1880.77,1702.07c.03-.05-4.85,1.8-11.59,3.09,0,0,18.87-281.2,21.68-318.72,2.81-37.53,14.63-43.84,14.63-43.84,0,0-25.03,353.4-24.72,359.48Z" style="fill:#163356;"/><path d="m1881.51,1688.44c-.51,8.11-.78,12.96-.74,13.63-13.36,4.47-40.22,9.86-55.25-.96,0,0-.38-4.46-1.16-12.67,0,0,26.23,12.11,57.16,0Z" style="fill:#163356;"/><path d="m2010.15,1702.75s-37.55,9.12-56.9-.68c0,0-.8-4.89-2.2-13.63,0,0,26.46,7.04,59.56-.38.15,8.52-.58,13.98-.46,14.69Z" style="fill:#163356;"/><path d="m1713.51,1078.12c-.05,11.53-15.74,20.81-15.74,20.81-1.75-2.66-3.51-5.46-5.16-8.32l11.13-18.04c3.36,1.85,6.61,4,9.77,5.55Z" style="fill:#7640cc;"/><path d="m1687.4,1040.13c-4.31,2.77,2.76,11.3,2.22,15.93-7.14-3.25-13.4-8.6-13.45-8.59-6.12-7.55-11.83-15.42-17.18-23.55-13.19-6.04,7.73,23.83,9.31,27.51-.04.03-.07.07-.1.1-7.92-6.4-15.51-13.24-22.47-20.67-14.84-3.1,15.08,24.2,17.8,27.45-.01.02-.02.04-.03.07-8.47-4.75-16.36-10.55-23.53-17.1-15.22-1.79,17.29,23.6,20.9,25.88,0,.04-.01.08-.02.11-6.44-.86-19.7-12.77-23.95-9.89-4.03,6.53,39.5,29.98,54.75,32.92,5.49,1.51,13.41-12.3,12.07-17.72-1.26-5.09-4.77-11.31-5.97-13.6-1.9-5.31-4.03-18.44-10.34-18.86Z" style="fill:#f99370;"/><path d="m1729.15,1132.86c.45.35.9.7,1.35,1.1-.45-.35-.85-.65-1.3-.95v-.05c-.05-.05-.05-.1-.05-.1Z" style="fill:#395b96;"/><path d="m1913.83,952.04c.12-.04.24-.1.35-.18.44-.36.52-1.01.16-1.45-.18-.23-4.54-5.56-11.86-5.29-.57.02-1.02.5-.99,1.07.02.57.5,1.02,1.07.99,6.25-.24,10.13,4.47,10.16,4.51.27.34.72.46,1.11.34Z" style="fill:#c16256;"/><path d="m1885.75,942.61c.18.02.37-.02.55-.1,3.29-1.63,6.95.61,6.99.63.48.3,1.12.16,1.42-.33.3-.48.16-1.12-.32-1.42-.19-.12-4.67-2.88-9.01-.73-.51.25-.72.87-.47,1.39.17.34.49.54.84.57Z" style="fill:#c16256;"/><path d="m1895.53,973.17c-.18.03-.35.12-.5.25-2.73,2.45-6.86,1.28-6.9,1.26-.54-.16-1.12.15-1.28.7-.16.55.15,1.12.69,1.28.21.06,5.27,1.53,8.87-1.71.42-.38.46-1.03.08-1.46-.25-.28-.62-.39-.96-.33Z" style="fill:#c16256;"/></g><g id="_1"><path d="m635.87,1057.12c13.17-85.1,62.29-65.06,62.29-65.06,0,0,27.02-14.04,49.35,20.14,35.42,54.18,76.84,40.64,86.54,89.46,9.51,47.83-55.57,102.19-133.08,66.85,0,0-78.37-25.71-65.11-111.39Z" style="fill:#662948;"/><path d="m892.24,1196.94c3.34,2.85-4.62,9.59-5.03,13.58,6.9-1.48,13.43-4.97,13.48-4.95,6.84-5.45,13.37-11.27,19.64-17.38,12.91-3.19-11.51,19.7-13.49,22.38.02.04.05.07.07.11,8.2-4.09,16.18-8.64,23.73-13.83,13.97-.34-18.15,18.64-20.94,20.69,0,.02,0,.04.01.06,8.36-2.54,16.41-6.11,23.98-10.49,14.11.91-20.01,17.66-23.37,18.71,0,.03,0,.07,0,.1,6.86-1.04,13.58-2.96,20.15-5.2,13.02,2.74-18.56,13.02-21.73,13.66-1.97,1.53-14.32,5.03-29.93,5.84-5.11.27-9.41-13.4-7.18-17.91,2.09-4.23,6.38-9.02,7.88-10.8,2.36-3.93,7.61-15.89,12.73-14.58Z" style="fill:#f99370;"/><path d="m692.28,1156.45c12.74,9.4,19.51,23.7,29.39,36.89,11.6,16.37,24.86,33.84,41.88,45.41,36.15,23.44,81.25,14.16,119.28,1.71,13.8-4.26,7.57-25.93-6.38-22.16-32.54,7.36-76.14,14-99.17-15.59-22.22-25.68-29.09-61.74-54.05-85.76-27.14-24.92-61.71,19.03-30.95,39.5Z" style="fill:#f99370;"/><path d="m708.59,1201.75c4.1,11.4,9.64,20.34,15.77,27.26,11.63,13.15,25.44,19.11,35.82,21.11.35.07.69.13,1.03.2,15.82,2.74,49.63-36.25,31.32-49.63-18.3-13.37-15.13-21.46-36.95-53.65-21.82-32.17-40.23-37.98-40.23-37.98.26,24.86-18.9,58.9-6.76,92.69Z" style="fill:#ce4abf;"/><path d="m415.73,1621.64l-11.93-73.44c3.69-1.89,22.04-1.15,28.46-2.92,4.11-.39,55.7-14.76,61.07-16.08l6.85,42.17-55.37,2c-6.57.24-12.03,5.1-13.05,11.59-2.96,14.38,2.06,29.44-7.19,39.84-3.17,2.79-8.18,1-8.86-3.16Z" style="fill:#f99370;"/><path d="m410.5,1544.83c-2.43.7-4.73,1.78-6.7,3.37l12.02,74.05c.58,3.6,4.55,5.63,7.76,3.89,7.48-4.1,17.42-15.73,13.67-50.15,0,0-5.34-11.05-4.99-30.7,0,0-11.9-3.31-21.76-.45Z" style="fill:#1d3f70;"/><path d="m435.22,1612.25c-2.69-.75-2.43-4.92-11.4-7.12-.82-.19-1.33-1-1.14-1.82,3.32-4.67,19.07,8.64,12.55,8.94Z" style="fill:#e8c0a6;"/><path d="m437.55,1601.26c-.46,0-.92-.21-1.22-.61h0c-.05-.06-4.78-6.24-12.87-7.38-1.95-.24-1.53-3.32.42-3.01,9.39,1.31,14.67,8.27,14.89,8.57.76.96-.01,2.46-1.22,2.43Z" style="fill:#e8c0a6;"/><path d="m438,1587.53c-2.1-.37-5.09-5.92-15.11-7.8-1.94-.31-1.42-3.37.53-2.99,10.04,2.16,19.64,9.13,14.59,10.79Z" style="fill:#e8c0a6;"/><path d="m423.7,1626.07l-13.19-81.24c-2.43.7-4.73,1.78-6.7,3.37l12.02,74.05c.59,3.65,4.67,5.67,7.87,3.82Z" style="fill:#395b96;"/><path d="m724.35,1229.01c11.63,13.15,25.44,19.11,35.82,21.11-6.53-13.34,2.52-19.15,4.2-40.98,1.76-22.88-18.25-46.7-18.25-46.7l-21.77,66.57Z" style="fill:#a523a2;"/><path d="m743.6,1746.52l-74.31-.82c-1.23-3.97,2.63-21.9,1.99-28.53-.02-2.79-.73-18.08-.99-20.86l5.56-41.93,32.76.36-7.5,54.88c-.89,6.51,2.97,12.72,9.19,14.83,13.65,5.36,29.24,3.03,37.98,13.8,2.27,3.62-.41,8.32-4.68,8.27Z" style="fill:#f99370;"/><path d="m667.11,1738.53c.28,2.52.94,4.96,2.18,7.18l75.04.82c3.65.04,6.33-3.52,5.16-6.98-2.76-8.07-12.52-19.85-47.09-22.04,0,0-11.81,3.37-31.11-.34,0,0-5.3,11.16-4.17,21.35Z" style="fill:#1d3f70;"/><path d="m727.42,1736.66c-1.05.02-1.84-1.13-1.4-2.11,3.35-8.01,9.47-10.42,9.73-10.52,1.83-.73,2.94,2.16,1.09,2.84-.23.09-5.2,2.12-8.01,8.85-.24.58-.81.93-1.4.93Z" style="fill:#e8c0a6;"/><path d="m715.62,1735.11c-1.01.01-1.78-1.03-1.45-1.99,2.78-10.09,15.98-17.53,12.37-10.49-.09.04-6.97,3.65-9.47,11.42-.21.65-.8,1.05-1.45,1.05Z" style="fill:#e8c0a6;"/><path d="m702.2,1733.31c-1.03.02-1.8-1.07-1.43-2.04,3.29-9.12,10.5-13.86,10.81-14.06,1.64-1.09,3.32,1.5,1.65,2.55-.1.06-6.68,4.43-9.6,12.54-.22.62-.81,1-1.43,1Z" style="fill:#e8c0a6;"/><path d="m749.44,1739.43l-82.33-.9c.28,2.52.94,4.96,2.18,7.18l75.04.82c3.7.05,6.39-3.63,5.11-7.1Z" style="fill:#395b96;"/><path d="m444.42,1538.42s0,20.93,5.7,40.89c142.65-11.89,201.87-30.46,213.01-168.89,0,0,48.74,93.22,2.2,270.49h-.01c-1.34,5.2-2.75,10.31-4.25,15.52,0,0,18.31,14.97,43.61,10.06,31.55-59.96,101.16-204.26,41.05-393.06-35.82-41.45-107.93-45.66-153.72-24.86-36.85,94.76,27.85,211.34-147.59,249.84Z" style="fill:#3a72aa;"/><path d="m444.42,1538.42s0,20.93,5.7,40.89c0,0,6.43-.45,16.83-1.52-6.53-16.01-6.35-43.31-6.35-43.31-5.09,1.47-10.62,2.6-16.18,3.95Z" style="fill:#23659b;"/><path d="m661.07,1696.43s18.31,14.97,43.61,10.06c0,0,2.35-4.59,6.82-13.21,0,0-29.92,2.82-46.17-12.37h-.01c-1.32,5.1-2.74,10.27-4.25,15.52Z" style="fill:#23659b;"/><path d="m665.32,1680.91c-.46,1.8-.94,3.6-1.43,5.41h9.06c31.69-94.95,37.23-251.32-9.81-275.9,0,0,48.74,93.22,2.2,270.49h-.01Z" style="fill:#23659b;"/><path d="m696.74,1701.9c24.95-56.89,41.6-112.44,49.48-165.11,6.31-42.22,7.04-82.69,2.17-120.31-8.34-64.3-29.91-97.55-30.83-98.93l-6.04,3.99,3.02-1.99-3.02,1.99c.22.33,21.7,33.58,29.76,96.4,7.44,58.05,4.6,153.92-51.17,281.06l6.63,2.91Z" style="fill:#23659b;"/><path d="m456.03,1574.18c50.93-4.9,88.96-13.67,116.27-26.81,27.13-13.05,45.54-31.31,56.27-55.8,26.88-61.35,17-184.44,16.56-189.65l-7.21.6c.1,1.26,10.16,126.47-15.98,186.14-20.23,46.18-68.5,68.87-166.6,78.31l.69,7.2Z" style="fill:#23659b;"/><path d="m589.56,1295.36c31.86,15.12,106.08,46.83,157.37,21.89,2.84-5.98,3.29-15.24,1.13-21.88-19.91-68.28,33.32-77.18-2.89-134.47-8.1-12.74-23.42-39.96-29.83-51.84-5.99,14.36-23.57.77-30.67-7.45-5.22.24-61.98,5.01-84.74,126.3-2.29,12.3-33.71,48.47-10.38,67.45Z" style="fill:#ce4abf;"/><path d="m697.38,1272.82c.74,4.33-9.69,4.41-12.56,7.21,6.25,3.28,13.5,4.79,13.52,4.83,8.74.19,17.48-.09,26.21-.77,11.95,5.82-21.46,7.76-24.7,8.54,0,.04-.01.09-.01.13,8.91,2.11,17.96,3.73,27.08,4.58,10.95,8.69-25.87,2.69-29.34,2.48,0,.02-.02.04-.03.06,8.05,3.4,16.52,5.82,25.13,7.31,10.25,9.74-26.68.74-29.93-.6-.02.03-.05.05-.07.08,5.93,3.59,12.32,6.43,18.8,8.91,8.25,10.44-22.59-1.89-25.44-3.43-2.49-.09-14.22-5.31-26.72-14.68-4.1-3.07,1.36-16.31,5.96-18.35,4.31-1.91,10.68-2.85,12.96-3.25,4.33-1.51,16.02-7.33,19.11-3.04Z" style="fill:#f99370;"/><path d="m642.84,1109.96c-30.49,22.87-61.86,58.16-73.03,94.72-17.67,50.49,45.72,80.13,86.5,92.05,7.97,3.03,17.27,4.67,20.57-5.45,2.34-9.26-5.35-12.94-12.54-15.65-13.41-6.21-27.09-14.07-38.18-23.44-12.95-10.65-23.37-25.25-13.27-40.63,12.07-24.72,32.78-45.91,56.21-59.5,27.46-17.31,1.33-59.15-26.27-42.1Z" style="fill:#f99370;"/><path d="m684.36,1101.62s-45.55-8.35-78.99,33c-33.44,41.35-60.78,93.85-38.61,107.57,12.7,7.86,14.07-12.88,45.4-6.74,24.44,4.79,19.68-40.69,56.44-78.74,20.23-20.94,20.94-47.64,15.75-55.08Z" style="fill:#ce4abf;"/><path d="m614.85,1237.82c3.92,0,17.18-2.04,26.01-28.2,9.59-28.43,26.33-48.36,26.5-48.55.74-.87.63-2.18-.24-2.91-.87-.74-2.18-.63-2.91.24-.71.83-17.42,20.74-27.26,49.91-9.03,26.76-22.47,25.38-22.6,25.36-1.14-.14-2.17.64-2.32,1.76-.16,1.12.6,2.16,1.72,2.33.09.01.48.07,1.11.07Z" style="fill:#a523a2;"/><path d="m715.3,1107.81s8.76,3.18,12.55,8.62c0,0-1.1,7.73-6.78,10.54-6.41,3.17-12.93-8.58-12.93-8.58,0,0-1.4,10.25-9.32,9.55-7.92-.7-22.97-12.32-27.72-26.94,0,0,9.63-1.67,13.26.62l30.93,6.19Z" style="fill:#ffd2d2;"/><path d="m716.51,1099.09l-1.21,8.72c-3.14,13.74-26.91.49-30.62-6.2,0,0,1.12-5.02,1.5-9.52l30.33,7Z" style="fill:#f99370;"/><path d="m686.96,1060.11c.01.54.04,1.09.1,1.63.77-.39.46,19.21-1.2,33.26,12.49,7.58,27.53,6.69,30.29,6.46,2.41-17.76,2.71-34.17,1.31-44.66-3.3-17.87-31.11-14.82-30.51,3.31Z" style="fill:#e57d61;"/><path d="m666.75,1049.37c2.43,13.82,7.33,29.36,18.41,38.37h.02c4.47,3.61,9.9,5.87,15.62,6.91,32.15,8.79,69.97-29.87,44.18-56.55-9.3-8.35-11.47-23.35-18.91-31.68-10.87-15.29-34.21-14.15-46.64-1.37-11.23,11.55-14.9,27.3-12.68,44.32Z" style="fill:#f99370;"/><path d="m719.5,1040.06c1.23-2.43-2.61-4.31-3.77-1.85-1.23,2.43,2.61,4.31,3.77,1.85Z" style="fill:#c16256;"/><path d="m737.09,1036.85c1.23-2.43-2.61-4.31-3.77-1.85-1.23,2.43,2.61,4.31,3.77,1.85Z" style="fill:#c16256;"/><path d="m731.9,1055.09c-1.29.03-4.13.56-4.08-1.2.13-.42.58-.66.99-.53,2.67.81,6.42-.58,6.92-1.79.17-.43-.4-.84-.92-1.11-4.48-2.17-10.42-14.6-6.32-11.75.03.08,3.06,8.25,7.05,10.34,4.51,3.02-.11,5.47-3.65,6.03Z" style="fill:#c16256;"/><path d="m666.75,1049.37c2.43,13.82,7.33,29.36,18.41,38.37h.02c-6.17-7.44-10.2-24.23-10.2-24.23l2.76-7.53c47.89-16.22,43.21-54.93,43.21-54.93-29.48-23.36-60.98,16.69-54.2,48.33Z" style="fill:#e57d61;"/><path d="m716.23,997.45s3.97,38.41-38.86,54.67l-15.57-8.3c-15.5-29.35,11.62-73.52,54.43-46.37Z" style="fill:#662948;"/><path d="m665.36,986.82c10.5,36.13,52.59,24.58,43.17-11.85-10.5-36.13-52.59-24.58-43.17,11.85Z" style="fill:#662948;"/><path d="m658.05,1056.49c3.35,15.62,23.03,11.17,19.32-4.38-3.35-15.62-23.03-11.17-19.32,4.38Z" style="fill:#f99370;"/><path d="m663.19,1059.67c-3.31-3.37-2.12-10.27-.43-11.48,3.1-2.53,8.72-1.27,8.33.32-.98,1.59-4.2-1.72-7.23.83-3.11,2.36,1.19,8.98-.66,10.33Z" style="fill:#c16256;"/><path d="m670.58,1058.45c-1.62-.06-2.3-5.95-8.55-6.5-.44-.02-.77-.4-.75-.83,4.33-3.36,12.27,7.62,9.3,7.33Z" style="fill:#c16256;"/><path d="m666.83,1062.6c0,2.31,3.63,2.26,3.56-.05,0-2.31-3.63-2.26-3.56.05Z" style="fill:#f4d4be;"/><path d="m725.37,1065.08c-.99-.27-1.89-.91-2.54-1.8-1.39-1.9-1.22-4.4.37-5.56.8-.58,1.82-.75,2.87-.46.99.27,1.89.91,2.54,1.8,1.39,1.9,1.22,4.4-.37,5.56-.54.4-1.19.6-1.87.6-.32,0-.66-.04-.99-.14Zm-1.26-6.11c-.9.66-.92,2.18-.04,3.39.45.61,1.05,1.05,1.7,1.22.59.16,1.14.08,1.55-.22.9-.66.92-2.18.04-3.39h0c-.45-.61-1.05-1.05-1.7-1.22-.2-.05-.39-.08-.58-.08-.36,0-.7.1-.97.3Zm3.86.54h0,0Z" style="fill:#c16256;"/><path d="m710.77,1035.68c.24,0,.48-.11.63-.33,2.82-3.99,8.29-4.03,8.34-4.03h0c.43,0,.78-.35.78-.77,0-.43-.34-.78-.77-.78h0c-.36,0-6.34.07-9.6,4.68-.25.35-.17.83.18,1.08.14.1.29.14.45.14Z" style="fill:#c16256;"/><path d="m727.4,1030.2c.11,0,.22-.02.33-.07,4.84-2.3,8.59-.06,8.63-.04.36.22.84.11,1.07-.26.22-.36.11-.84-.26-1.07-.18-.11-4.51-2.7-10.11-.04-.39.18-.55.65-.37,1.03.13.28.41.44.7.44Z" style="fill:#c16256;"/></g></svg>